<?xml version="1.0" encoding="utf-8"?>
<!-- Generator: Adobe Illustrator 23.0.3, SVG Export Plug-In . SVG Version: 6.00 Build 0)  -->
<svg version="1.1" id="Layer_1" xmlns="http://www.w3.org/2000/svg" xmlns:xlink="http://www.w3.org/1999/xlink" x="0px" y="0px"
	 viewBox="0 0 1198 130" style="enable-background:new 0 0 1198 130;" xml:space="preserve">
<style type="text/css">
	.st0{fill:#FFFFFF;}
	.st1{fill:#FF7F1E;}
</style>
<circle class="st0" cx="5" cy="125" r="5.5"/>
<circle class="st0" cx="17" cy="125" r="5.5"/>
<circle class="st0" cx="29" cy="125" r="5.5"/>
<circle class="st0" cx="41" cy="125" r="5.5"/>
<circle class="st0" cx="53" cy="125" r="5.5"/>
<circle class="st0" cx="65" cy="125" r="5.5"/>
<circle class="st0" cx="77" cy="125" r="5.5"/>
<circle class="st0" cx="89" cy="125" r="5.5"/>
<circle class="st0" cx="101" cy="125" r="5.5"/>
<circle class="st0" cx="113" cy="125" r="5.5"/>
<circle class="st0" cx="125" cy="125" r="5.5"/>
<circle class="st0" cx="137" cy="125" r="5.5"/>
<circle class="st0" cx="149" cy="125" r="5.5"/>
<circle class="st0" cx="161" cy="125" r="5.5"/>
<circle class="st0" cx="173" cy="125" r="5.5"/>
<circle class="st0" cx="185" cy="125" r="5.5"/>
<circle class="st0" cx="197" cy="125" r="5.5"/>
<circle class="st0" cx="209" cy="125" r="5.5"/>
<circle class="st0" cx="221" cy="125" r="5.5"/>
<circle class="st0" cx="233" cy="125" r="5.5"/>
<circle class="st0" cx="245" cy="125" r="5.5"/>
<circle class="st0" cx="257" cy="125" r="5.5"/>
<circle class="st0" cx="269" cy="125" r="5.5"/>
<circle class="st0" cx="281" cy="125" r="5.5"/>
<circle class="st0" cx="293" cy="125" r="5.5"/>
<circle class="st0" cx="305" cy="125" r="5.5"/>
<circle class="st0" cx="317" cy="125" r="5.5"/>
<circle class="st0" cx="329" cy="125" r="5.5"/>
<circle class="st0" cx="341" cy="125" r="5.5"/>
<circle class="st0" cx="353" cy="125" r="5.5"/>
<circle class="st0" cx="365" cy="125" r="5.5"/>
<circle class="st0" cx="377" cy="125" r="5.5"/>
<circle class="st0" cx="389" cy="125" r="5.5"/>
<circle class="st0" cx="401" cy="125" r="5.5"/>
<circle class="st0" cx="413" cy="125" r="5.5"/>
<circle class="st0" cx="425" cy="125" r="5.5"/>
<circle class="st0" cx="437" cy="125" r="5.5"/>
<circle class="st0" cx="449" cy="125" r="5.5"/>
<circle class="st0" cx="461" cy="125" r="5.5"/>
<circle class="st0" cx="473" cy="125" r="5.5"/>
<circle class="st0" cx="485" cy="125" r="5.5"/>
<circle class="st0" cx="497" cy="125" r="5.5"/>
<circle class="st0" cx="509" cy="125" r="5.5"/>
<circle class="st0" cx="521" cy="125" r="5.5"/>
<circle class="st0" cx="533" cy="125" r="5.5"/>
<circle class="st0" cx="545" cy="125" r="5.5"/>
<circle class="st0" cx="557" cy="125" r="5.5"/>
<circle class="st0" cx="569" cy="125" r="5.5"/>
<circle class="st0" cx="581" cy="125" r="5.5"/>
<circle class="st0" cx="593" cy="125" r="5.5"/>
<circle class="st0" cx="605" cy="125" r="5.5"/>
<circle class="st0" cx="617" cy="125" r="5.5"/>
<circle class="st0" cx="629" cy="125" r="5.5"/>
<circle class="st0" cx="641" cy="125" r="5.5"/>
<circle class="st0" cx="653" cy="125" r="5.5"/>
<circle class="st0" cx="665" cy="125" r="5.5"/>
<circle class="st0" cx="677" cy="125" r="5.5"/>
<circle class="st0" cx="1049" cy="113" r="5.5"/>
<circle class="st0" cx="1061" cy="113" r="5.5"/>
<circle class="st0" cx="1073" cy="113" r="5.5"/>
<circle class="st0" cx="1085" cy="113" r="5.5"/>
<circle class="st0" cx="1097" cy="113" r="5.5"/>
<circle class="st0" cx="1109" cy="113" r="5.5"/>
<circle class="st0" cx="1121" cy="113" r="5.5"/>
<circle class="st0" cx="1133" cy="113" r="5.5"/>
<circle class="st0" cx="1145" cy="113" r="5.5"/>
<circle class="st0" cx="1157" cy="113" r="5.5"/>
<circle class="st0" cx="1169" cy="113" r="5.5"/>
<circle class="st0" cx="1181" cy="113" r="5.5"/>
<circle class="st0" cx="1193" cy="113" r="5.5"/>
<circle class="st0" cx="689" cy="125" r="5.5"/>
<circle class="st1" cx="5" cy="125" r="5"/>
<circle class="st1" cx="17" cy="125" r="5"/>
<circle class="st1" cx="29" cy="125" r="5"/>
<circle class="st1" cx="41" cy="125" r="5"/>
<circle class="st1" cx="53" cy="125" r="5"/>
<circle class="st1" cx="65" cy="125" r="5"/>
<circle class="st1" cx="77" cy="125" r="5"/>
<circle class="st1" cx="89" cy="125" r="5"/>
<circle class="st1" cx="101" cy="125" r="5"/>
<circle class="st1" cx="113" cy="125" r="5"/>
<circle class="st1" cx="125" cy="125" r="5"/>
<circle class="st1" cx="137" cy="125" r="5"/>
<circle class="st1" cx="149" cy="125" r="5"/>
<circle class="st1" cx="161" cy="125" r="5"/>
<circle class="st1" cx="173" cy="125" r="5"/>
<circle class="st1" cx="185" cy="125" r="5"/>
<circle class="st1" cx="197" cy="125" r="5"/>
<circle class="st1" cx="209" cy="125" r="5"/>
<circle class="st1" cx="221" cy="125" r="5"/>
<circle class="st1" cx="233" cy="125" r="5"/>
<circle class="st1" cx="245" cy="125" r="5"/>
<circle class="st1" cx="257" cy="125" r="5"/>
<circle class="st1" cx="269" cy="125" r="5"/>
<circle class="st1" cx="281" cy="125" r="5"/>
<circle class="st1" cx="293" cy="125" r="5"/>
<circle class="st1" cx="305" cy="125" r="5"/>
<circle class="st1" cx="317" cy="125" r="5"/>
<circle class="st1" cx="329" cy="125" r="5"/>
<circle class="st1" cx="341" cy="125" r="5"/>
<circle class="st1" cx="353" cy="125" r="5"/>
<circle class="st1" cx="365" cy="125" r="5"/>
<circle class="st1" cx="377" cy="125" r="5"/>
<circle class="st1" cx="389" cy="125" r="5"/>
<circle class="st1" cx="401" cy="125" r="5"/>
<circle class="st1" cx="413" cy="125" r="5"/>
<circle class="st1" cx="425" cy="125" r="5"/>
<circle class="st1" cx="437" cy="125" r="5"/>
<circle class="st1" cx="449" cy="125" r="5"/>
<circle class="st1" cx="461" cy="125" r="5"/>
<circle class="st1" cx="473" cy="125" r="5"/>
<circle class="st1" cx="485" cy="125" r="5"/>
<circle class="st1" cx="497" cy="125" r="5"/>
<circle class="st1" cx="509" cy="125" r="5"/>
<circle class="st1" cx="521" cy="125" r="5"/>
<circle class="st1" cx="533" cy="125" r="5"/>
<circle class="st1" cx="545" cy="125" r="5"/>
<circle class="st1" cx="557" cy="125" r="5"/>
<circle class="st1" cx="569" cy="125" r="5"/>
<circle class="st1" cx="581" cy="125" r="5"/>
<circle class="st1" cx="593" cy="125" r="5"/>
<circle class="st1" cx="605" cy="125" r="5"/>
<circle class="st1" cx="617" cy="125" r="5"/>
<circle class="st1" cx="629" cy="125" r="5"/>
<circle class="st1" cx="641" cy="125" r="5"/>
<circle class="st1" cx="653" cy="125" r="5"/>
<circle class="st1" cx="665" cy="125" r="5"/>
<circle class="st1" cx="677" cy="125" r="5"/>
<circle class="st1" cx="1049" cy="113" r="5"/>
<circle class="st1" cx="1061" cy="113" r="5"/>
<circle class="st1" cx="1073" cy="113" r="5"/>
<circle class="st1" cx="1085" cy="113" r="5"/>
<circle class="st1" cx="1097" cy="113" r="5"/>
<circle class="st1" cx="1109" cy="113" r="5"/>
<circle class="st1" cx="1121" cy="113" r="5"/>
<circle class="st1" cx="1133" cy="113" r="5"/>
<circle class="st1" cx="1145" cy="113" r="5"/>
<circle class="st1" cx="1157" cy="113" r="5"/>
<circle class="st1" cx="1169" cy="113" r="5"/>
<circle class="st1" cx="1181" cy="113" r="5"/>
<circle class="st1" cx="1193" cy="113" r="5"/>
<g>
	<circle class="st1" cx="689" cy="125" r="5"/>
</g>
</svg>
