<?xml version="1.0" encoding="utf-8"?>
<!-- Generator: Adobe Illustrator 23.0.3, SVG Export Plug-In . SVG Version: 6.00 Build 0)  -->
<svg version="1.1" id="Layer_1" xmlns="http://www.w3.org/2000/svg" xmlns:xlink="http://www.w3.org/1999/xlink" x="0px" y="0px"
	 viewBox="0 0 67 94.897" style="enable-background:new 0 0 67 94.897;" xml:space="preserve">
<style type="text/css">
	.st0{fill:#005C99;}
</style>
<g>
	<g>
		<path class="st0" d="M8.674,56.758h9.309v-3.103h-7.757V27.278c0-12.854,10.419-23.274,23.274-23.274s23.274,10.419,23.274,23.274
			v26.377h-7.759v3.103h9.311c0.858,0,1.551-0.696,1.551-1.551V27.278c0-14.568-11.809-26.377-26.377-26.377
			S7.123,12.711,7.123,27.278v27.928C7.123,56.062,7.816,56.758,8.674,56.758"/>
		<path class="st0" d="M4.019,75.376c0.006-4.283,3.476-7.751,7.757-7.757h7.913c0.743,3.609,3.917,6.202,7.603,6.206h12.412
			c3.686-0.004,6.862-2.597,7.605-6.206h7.911c4.283,0.006,7.753,3.474,7.757,7.757v15.517H4.019V75.376z M25.741,67.619
			c0.858,0,1.551-0.696,1.551-1.551v-8.844c4.012,1.449,8.402,1.449,12.412,0v8.844c0,0.856,0.696,1.551,1.553,1.551h2.816
			c-0.654,1.854-2.403,3.095-4.37,3.103h-12.41c-1.965-0.008-3.714-1.249-4.37-3.103H25.741z M17.984,39.691V28.829h31.031v10.862
			c0,8.57-6.947,15.515-15.517,15.515C24.931,55.205,17.984,48.26,17.984,39.691 M2.467,93.996h62.064
			c0.856,0,1.551-0.694,1.551-1.551V75.376c-0.008-5.994-4.866-10.854-10.862-10.86H42.809V55.79
			c5.753-3.322,9.299-9.457,9.309-16.1V19.52h-3.103v6.206h-9.311v-7.757h-3.101v7.757h-6.208V19.52h-3.103v6.206h-3.103v-4.654
			h-3.103v4.654h-3.103v-7.757H14.88v21.722c0.008,6.643,3.555,12.777,9.309,16.1v8.726H11.776
			c-5.994,0.006-10.854,4.866-10.86,10.86v17.068C0.916,93.302,1.612,93.996,2.467,93.996"/>
	</g>
</g>
</svg>
