<?xml version="1.0" encoding="utf-8"?>
<!-- Generator: Adobe Illustrator 23.0.3, SVG Export Plug-In . SVG Version: 6.00 Build 0)  -->
<svg version="1.1" id="Layer_1" xmlns="http://www.w3.org/2000/svg" xmlns:xlink="http://www.w3.org/1999/xlink" x="0px" y="0px"
	 viewBox="0 0 89 104.388" style="enable-background:new 0 0 89 104.388;" xml:space="preserve">
<style type="text/css">
	.st0{fill:#005C99;}
</style>
<g>
	<path class="st0" d="M46.75,27.382c-1.253-0.719-2.389-1.532-3.409-2.423c-2.071,1.35-4.498,2.445-7.241,3.214
		c-2.615,0.741-5.522,1.19-8.676,1.306v14.813c0,4.291,2.176,8.261,5.214,11.297c3.544,3.544,8.174,5.779,11.862,5.779
		c3.666,0,8.309-2.245,11.862-5.795c3.032-3.036,5.214-7,5.214-11.281V31.24C55.674,31.022,50.658,29.639,46.75,27.382
		 M56.377,59.923c2.134,0.591,4.083,0.901,6.062,0.955c2.332,0.059,4.745-0.235,7.577-0.86c-0.619-5.747,0.091-10.779,0.832-16.028
		c0.561-3.982,1.142-8.091,1.142-12.653l-0.006-0.241c0-6.878-2.694-13.25-7.415-17.914c-4.755-4.69-11.564-7.678-19.772-7.747
		h-0.597c-8.208,0.069-15.022,3.057-19.772,7.747c-4.722,4.664-7.417,11.036-7.417,17.914h-0.01l0.004,0.229
		c0,4.573,0.577,8.682,1.142,12.665c0.743,5.249,1.453,10.281,0.828,16.028c2.832,0.625,5.251,0.919,7.581,0.86
		c1.97-0.053,3.917-0.364,6.042-0.951c-0.796-0.623-1.559-1.297-2.285-2.022c-3.591-3.591-6.174-8.362-6.174-13.613V27.868
		c0-0.907,0.731-1.638,1.638-1.638c3.506,0,6.67-0.427,9.441-1.206c2.182-0.615,4.125-1.453,5.805-2.482
		c-1.478-1.846-2.54-3.933-3.142-6.2c-0.235-0.87,0.283-1.773,1.158-2.002c0.876-0.233,1.771,0.283,2.006,1.158
		c0.992,3.714,3.528,6.858,7.332,9.056c3.773,2.178,8.793,3.437,14.839,3.437c0.903,0,1.638,0.731,1.638,1.638v14.663
		c0,5.241-2.581,10.006-6.178,13.597C57.952,58.614,57.178,59.298,56.377,59.923 M40.902,82.9c-2.21-1.504-4.065-3.121-5.502-4.903
		l-0.079-0.091c-1.67-2.113-2.749-4.435-3.111-7.06l-2.828,0.666c-0.188,2.818,0.277,5.342,1.281,7.332
		c0.634,1.255,1.478,2.295,2.496,3.057c1.004,0.741,2.2,1.233,3.559,1.399C37.977,83.455,39.376,83.337,40.902,82.9 M52.199,62.585
		c-2.621,1.324-5.314,2.065-7.7,2.065c-2.395,0-5.085-0.741-7.7-2.055l-1.447,6.378c0.038,2.621,0.935,4.878,2.53,6.894l0.063,0.087
		c1.569,1.947,3.801,3.702,6.56,5.368c2.779-1.682,5.032-3.463,6.611-5.455l0.063-0.079c1.559-1.996,2.433-4.222,2.47-6.793
		L52.199,62.585z M59.617,71.512l-2.834-0.666c-0.358,2.587-1.409,4.878-3.036,6.959l-0.069,0.101
		c-1.441,1.814-3.324,3.457-5.581,4.994c1.52,0.437,2.923,0.555,4.182,0.401c1.356-0.166,2.557-0.658,3.559-1.399
		c1.02-0.763,1.864-1.802,2.492-3.057C59.334,76.854,59.802,74.331,59.617,71.512 M33.325,63.119
		c-2.326,0.63-4.482,0.966-6.692,1.024c-3.026,0.081-6.109-0.362-9.85-1.275c-0.828-0.198-1.356-0.998-1.233-1.824
		c0.866-5.929,0.128-11.149-0.644-16.607c-0.571-4.065-1.17-8.271-1.17-13.093v-0.241l-0.004-0.006
		c0-7.763,3.052-14.961,8.404-20.244c5.326-5.263,12.925-8.603,22.039-8.682h0.65c9.115,0.079,16.714,3.419,22.041,8.682
		c5.346,5.283,8.404,12.481,8.404,20.244l-0.01,0.247c0,4.822-0.593,9.028-1.17,13.093c-0.769,5.459-1.504,10.678-0.634,16.607
		c0.128,0.876-0.464,1.692-1.334,1.846c-3.692,0.897-6.749,1.334-9.759,1.253c-2.204-0.057-4.36-0.393-6.692-1.024l0.986,4.332
		l9.793,2.312c6.18,1.457,11.319,4.627,14.898,9.038c3.538,4.356,5.556,9.894,5.556,16.165v7.251H83.62v-7.251
		c0-5.496-1.745-10.331-4.809-14.099c-3.127-3.852-7.647-6.627-13.105-7.919l-2.775-0.65c0.057,3.016-0.54,5.757-1.676,8.02
		c-0.86,1.704-2.028,3.138-3.469,4.212c-1.463,1.083-3.18,1.793-5.113,2.028c-2.423,0.298-5.18-0.144-8.174-1.522
		c-2.994,1.378-5.753,1.82-8.176,1.522c-1.931-0.235-3.648-0.945-5.111-2.028c-1.441-1.073-2.609-2.508-3.469-4.212
		c-1.136-2.263-1.735-5.004-1.676-8.02l-2.775,0.65c-5.459,1.293-9.979,4.067-13.105,7.919c-3.063,3.769-4.809,8.603-4.809,14.099
		v7.251H2.098v-7.251c0-6.271,2.012-11.809,5.554-16.165c3.581-4.411,8.72-7.581,14.9-9.038l9.791-2.312L33.325,63.119z"/>
</g>
</svg>
