<?xml version="1.0" encoding="utf-8"?>
<!-- Generator: Adobe Illustrator 23.0.3, SVG Export Plug-In . SVG Version: 6.00 Build 0)  -->
<svg version="1.1" id="Layer_1" xmlns="http://www.w3.org/2000/svg" xmlns:xlink="http://www.w3.org/1999/xlink" x="0px" y="0px"
	 viewBox="0 0 63 86.103" style="enable-background:new 0 0 63 86.103;" xml:space="preserve">
<style type="text/css">
	.st0{fill:#005C99;}
</style>
<g>
	<path class="st0" d="M59.038,19.133c-0.022,0.268-0.081,0.335-0.111,0.364l-7.068,6.962c-0.049,0-0.195,0-0.263-0.229l-1.845-9.387
		l9.114,2.16C58.93,19.016,58.989,19.07,59.038,19.133 M36.265,11.421l7.556-7.651l2.257,9.58L36.265,11.421z M36.07,12.247
		l0.142-0.77l0.01-0.012L36.07,12.247z M41.587,15.327l5.174,1.018l1.048,5.069C46.179,18.945,44.041,16.898,41.587,15.327
		 M30.955,14.736c9.801,0,17.772,8.424,17.772,18.777c0,10.354-7.971,18.778-17.772,18.778c-9.85,0-17.863-8.424-17.863-18.778
		C13.092,23.16,21.105,14.736,30.955,14.736 M59.356,16.441l-10.352-2.437L46.479,3.211c-0.265-1.196-1.32-2.034-2.562-2.034
		c-0.698,0-1.363,0.283-1.877,0.794l-7.668,7.668c-0.674,0.676-0.939,1.719-0.669,2.663c0.013,0.047,0.061,0.079,0.078,0.126
		c-0.932-0.136-1.859-0.298-2.826-0.298c-11.336,0-20.563,9.594-20.563,21.384c0,11.793,9.227,21.385,20.563,21.385
		c11.291,0,20.474-9.592,20.474-21.385c0-1.544-0.174-3.042-0.472-4.493c0.26,0.074,0.524,0.138,0.811,0.138
		c0.876,0,1.63-0.34,2.059-0.886l6.881-6.884c0.775-0.649,1.1-1.773,0.827-2.865v-0.003C61.267,17.461,60.45,16.684,59.356,16.441"
		/>
	<path class="st0" d="M30.28,74c0.263-0.265,0.514-0.393,0.768-0.393l0.169-0.008c0.344,0.046,0.683,0.381,0.718,0.622
		c0,0.268-0.118,0.644-0.305,0.971c-0.194,0.212-0.538,0.318-0.841,0.29c-0.344-0.046-0.683-0.381-0.731-0.76
		C30.015,74.455,30.098,74.179,30.28,74 M31.463,70.923c-1.272-0.216-2.476,0.211-3.343,1.195c-0.662,0.779-0.957,1.817-0.831,2.963
		c0.239,1.547,1.441,2.752,3.121,3.003h0.455c1.047,0,2.021-0.463,2.744-1.303c0.664-0.773,0.962-1.817,0.839-2.904
		C34.328,72.416,33.072,71.176,31.463,70.923"/>
	<path class="st0" d="M49.976,61.842l0.767,0.586c-2.021,1.871-5.954,4.919-10.111,4.919c-0.32,0-0.716,0-1.092-0.083
		c-2.634-0.302-5.034-1.919-7.15-4.82c0.03-0.003,0.061-0.008,0.091-0.012l0.393-0.051c0.228,0,0.396-0.057,0.659-0.115
		c2.73-0.667,4.884-2.393,6.267-5.012C41.835,57.869,46.077,59.272,49.976,61.842 M21.906,57.334
		c0.976,1.941,2.791,4.144,6.026,4.867c0.098,0.051,0.362,0.162,0.865,0.249c-2.012,2.776-4.346,4.331-6.876,4.624
		c-0.217,0-0.436,0.025-0.654,0.054c-0.147,0.017-0.293,0.037-0.443,0.037c-3.954,0-7.626-2.614-9.818-4.567l0.735-0.558
		C15.721,59.272,20.102,57.843,21.906,57.334 M57.216,76.082h-0.002c-3.315,2.332-11.131,6.237-26.259,6.237
		c-14.168,0-22.103-3.396-26.256-6.237c-0.684-0.477-1.055-1.358-0.925-2.201c0.502-3.691,2.272-6.93,5.258-9.653
		c2.89,2.647,7.14,5.548,11.884,5.548c0.497,0,0.927,0,1.281-0.094c3.207-0.361,6.028-2.093,8.397-5.158
		c2.469,3.188,5.344,4.98,8.504,5.327c0.539,0.108,0.957,0.108,1.443,0.108c5.423,0,10.008-3.748,12.182-5.886
		c3.129,2.85,4.919,6.148,5.339,9.884C58.272,74.869,57.789,75.68,57.216,76.082 M53.581,61.242l-2.075-1.508
		c-4.449-2.968-9.498-4.604-12.166-5.325l-1.095-0.224l-0.506,1.023c-0.624,1.641-1.978,3.753-4.826,4.488
		c-2.53,0.435-3.664,0.135-3.743,0.135l-0.163-0.163l-0.239-0.054c-3.14-0.698-4.393-3.045-4.874-4.419l-0.447-1.109l-1.202,0.243
		c-3.207,0.875-7.914,2.524-12.166,5.443l-2.029,1.57c-4.1,3.433-6.473,7.516-7.053,12.142c-0.216,1.862,0.561,3.623,2.086,4.715
		c3.539,2.513,11.857,6.727,27.781,6.727c15.925,0,24.243-4.215,27.784-6.727c1.525-1.092,2.302-2.853,2.086-4.703
		C60.256,68.917,57.784,64.68,53.581,61.242"/>
</g>
</svg>
