<?xml version="1.0" encoding="utf-8"?>
<!-- Generator: Adobe Illustrator 23.0.3, SVG Export Plug-In . SVG Version: 6.00 Build 0)  -->
<svg version="1.1" id="Layer_1" xmlns="http://www.w3.org/2000/svg" xmlns:xlink="http://www.w3.org/1999/xlink" x="0px" y="0px"
	 viewBox="0 0 75 76.48" style="enable-background:new 0 0 75 76.48;" xml:space="preserve">
<style type="text/css">
	.st0{fill:#085394;}
	.st1{fill:#39BCDD;}
	.st2{fill:#FFFFFF;}
</style>
<g>
	<path class="st0" d="M71.44,37.97c-0.02,0.01,0.06-0.27,0.09,0.24C71.51,38.16,71.44,38.27,71.44,37.97 M70.9,33.12l-0.2-0.71
		l0.16,0.62L70.9,33.12z M70.42,31.09l0.19,0.34c-0.25-0.97-0.57-1.93-0.81-2.9c-0.01,0.46,0.5,1.6,0.62,2.42L70.42,31.09z
		 M69.4,26.54c-0.04-0.09-0.09-0.22-0.17-0.44c0.01,0.16-0.24-0.49,0.2,0.55C69.41,26.59,69.41,26.58,69.4,26.54 M69.4,26.54
		C69.58,27,69.32,26.23,69.4,26.54 M68.79,25.04c-0.03-0.14-0.26-0.67-0.15-0.48c-0.3-0.6-0.27-0.46-0.16-0.09L68.79,25.04z
		 M68.3,24.24c-0.01-0.06-0.04-0.14-0.16-0.29c0,0,0.04,0.07,0.09,0.14L68.3,24.24z M68.63,24.87l-0.33-0.63
		c0.02,0.09-0.01,0.12,0.15,0.29C68.39,24.5,68.48,24.61,68.63,24.87 M68.77,25.45c0.47,1.14,0.5,0.93,0.01-0.2
		C68.91,25.59,69.06,26.03,68.77,25.45 M69.71,28.81l0.15,0.39c0.09,0.23-0.27-0.85-0.26-0.86C69.64,28.5,69.67,28.66,69.71,28.81
		 M66.94,21.56c-0.1-0.23-0.34-0.63-0.32-0.68c-0.05-0.02,0.06,0.22,0.05,0.28C66.76,21.3,66.85,21.43,66.94,21.56z M66.67,21.17
		l-0.43-0.58C66.58,21.13,66.66,21.22,66.67,21.17 M68.26,24.42c0.14,0.26,0.29,0.51,0.29,0.51c-0.22-0.41-0.44-0.82-0.69-1.22
		l0.1,0.2C67.96,23.91,68.12,24.16,68.26,24.42 M65.36,18.91c0,0-0.12-0.13-0.25-0.27l-0.26-0.26
		C65.02,18.57,65.19,18.74,65.36,18.91z M63.96,17.06c-0.33-0.37-0.64-0.66-0.92-0.91c0.29,0.28,0.56,0.62,0.89,1.06
		C64.17,17.4,63.73,16.84,63.96,17.06 M62.56,15.73c0.15,0.14,0.31,0.27,0.48,0.42C62.88,16,62.72,15.86,62.56,15.73 M65.41,19.34
		c0.05,0.07,0.11,0.15,0.16,0.23c-0.02-0.05-0.04-0.17-0.26-0.5L65.41,19.34z M65.42,19.35L65.42,19.35
		c-0.18-0.26-0.3-0.43-0.35-0.51C65.11,18.91,65.22,19.06,65.42,19.35 M65.62,19.63c-0.01-0.02-0.03-0.04-0.04-0.06
		C65.58,19.6,65.59,19.62,65.62,19.63 M66.79,21.92c0.19,0.23-0.01-0.2,0.36,0.31C66.9,21.89,66.42,21.16,66.79,21.92 M66.14,20.61
		c0.01-0.02-0.04-0.15,0.09,0.01c-0.14-0.18-0.27-0.37-0.41-0.55c-0.05-0.06-0.08-0.1-0.08-0.1C65.87,20.18,66.01,20.4,66.14,20.61
		 M65.5,19.68l0.23,0.29l-0.16-0.23L65.5,19.68z M63.38,16.73c-0.24-0.23-0.48-0.49-0.76-0.78c0.29,0.32,0.58,0.66,0.86,0.99
		C63.53,16.97,63.69,17.08,63.38,16.73 M64.4,17.99c-0.01-0.02-0.03-0.04-0.05-0.05C64.37,17.97,64.39,18,64.4,17.99 M59.72,13.22
		c0.01,0.02,0.03,0.03,0.04,0.05c0.01,0,0.01,0,0.02,0L59.72,13.22z M63.51,17.01c0.2,0.26,0.34,0.39,0.48,0.52
		c-0.17-0.18-0.34-0.37-0.52-0.58C63.45,16.93,63.44,16.93,63.51,17.01 M61.75,14.95c0.11,0.13,0.24,0.27,0.37,0.43
		C62.03,15.24,61.81,14.98,61.75,14.95 M64.3,17.83c0.01,0.01,0.02,0.02,0.03,0.04C64.28,17.77,64.28,17.79,64.3,17.83 M64.3,17.83
		c-0.11-0.12-0.21-0.22-0.3-0.31c0.13,0.15,0.25,0.29,0.36,0.41C64.33,17.9,64.31,17.86,64.3,17.83 M60.75,14.12
		c0.1,0.1,0.17,0.16,0.17,0.16l-0.08-0.06l0.23,0.21c-0.24-0.26-0.41-0.44-0.73-0.79c-0.41-0.31-0.51-0.36-0.55-0.36
		C60.1,13.55,60.42,13.84,60.75,14.12 M62.06,15.38c-0.22-0.13-0.78-0.6-0.51-0.23c0.64,0.63,0.49,0.4,0.89,0.77
		c-1.02-1.04,0.32,0.27-0.37-0.52c0.21,0.2,0.39,0.38,0.56,0.56c-0.17-0.2-0.34-0.39-0.5-0.57c0.01,0.01,0.01,0.02,0.02,0.03l0.01,0
		h0c0.04,0.05,0.05,0.07,0,0.02c0,0-0.02-0.02-0.02-0.02C62.11,15.41,62.08,15.4,62.06,15.38c-0.28-0.32-0.03-0.06,0.07,0.03
		c0.01,0,0.02,0.01,0.02,0c0,0,0,0,0,0c-0.35-0.34-0.71-0.67-1.08-0.99C61.28,14.65,61.57,14.9,62.06,15.38 M66.25,21.35
		c-0.02-0.04-0.01-0.04-0.01-0.05C66.18,21.22,66.15,21.2,66.25,21.35 M66.36,21.31l-0.06-0.08c-0.23-0.4-0.48-0.91-0.54-1.07
		c0.03,0.17,0.08,0.32,0.22,0.66c0.07,0.08,0.14,0.14,0.32,0.43c0.14,0.26-0.03,0.02-0.05,0.05C66.37,21.46,66.67,21.88,66.36,21.31
		 M65.75,20.17c0-0.02-0.01-0.03-0.01-0.05C65.73,20.1,65.73,20.13,65.75,20.17 M63.72,17.53c-0.21-0.22-0.41-0.44-0.41-0.44
		l0.35,0.51l0.01-0.05c0.43,0.54,0.36,0.4,0.44,0.44C63.99,17.83,63.85,17.68,63.72,17.53 M59.82,13.14
		c-0.2-0.12-0.41-0.24-0.62-0.35l0.45,0.31L59.82,13.14z M58.48,12.11c-0.12-0.07-0.24-0.14-0.37-0.21l0.28,0.23L58.48,12.11z
		 M20.87,11.02L21.05,11c0.3-0.21,0.54-0.35,0.75-0.47C21.32,10.76,20.77,10.99,20.87,11.02 M43.55,6.02
		c-0.44-0.09-0.8-0.15-1.11-0.19C42.97,5.95,43.4,6.07,43.55,6.02 M10.45,53.88c0.12,0.18,0.18,0.26,0.19,0.24
		C10.52,53.93,10.45,53.83,10.45,53.88 M41.14,5.73c0.08,0.01,0.16,0.02,0.24,0.04c0.33,0.02,0.66,0.02,1.06,0.07
		C42.04,5.75,41.59,5.71,41.14,5.73 M70.98,43.14c0.02-0.11,0.04-0.29,0.07-0.61C71.04,42.67,71.01,42.91,70.98,43.14 M52.96,8.8
		C53.27,8.94,53.01,8.81,52.96,8.8 M54.13,9.79c0.03,0,0.08,0.01,0.14,0.03C54.2,9.79,54.15,9.78,54.13,9.79 M53.4,9.06
		c-0.11-0.07-0.23-0.14-0.37-0.22C53.09,8.88,53.2,8.95,53.4,9.06 M53.35,9c0.1,0.06,0.18,0.1,0.26,0.14
		C53.65,9.14,53.63,9.12,53.35,9 M52.96,8.8c-0.09-0.04-0.22-0.1-0.43-0.19c0.18,0.08,0.34,0.16,0.49,0.23
		C52.97,8.81,52.94,8.8,52.96,8.8 M71.21,39.11c0.31,0.64-0.19,1.54-0.01,2.21c-0.1,0.62-0.23,1.23-0.35,1.85
		c0.05-0.05,0.06,0.26,0.13-0.03c-0.08,0.46-0.14,0.86,0.02,0.27c-1,4.37-2.39,8.76-5,12.46c-0.15,0.26-0.03,0.14,0.06,0.05
		c-0.53,0.63-0.39,0.67-0.63,1.05c-0.27,0.3-0.55,0.58-0.83,0.87c-0.26,0.41,0.01,0.14,0.01,0.19c-1.36,1.81-3.01,3.28-4.32,4.55
		c-0.48,0.34,0.02-0.19-0.57,0.3c0.39-0.25-1,1.08-1.1,1.13c-0.28,0.14-2.09,1.04-2.14,1.17c-0.78,0.48-0.58,0.5-0.35,0.37
		c-0.78,0.51-1.6,0.95-2.39,1.44c-0.14,0.05-0.47,0.23-0.92,0.44c-1.41,0.62-2.94,1.46-4.5,1.63c0.65-0.07-0.03,0.08-0.61,0.29
		l0.57-0.05c-0.45,0.13-0.9,0.25-1.36,0.37c-0.28,0.07-0.36,0.09-0.36,0.08c-0.23,0.05,0.04-0.07-0.55,0.04
		c-0.47,0.11-0.71,0.17-0.9,0.22c-0.19,0.06-0.33,0.1-0.58,0.18l0.15-0.01c-0.21,0.04-0.48,0.06-0.69,0.12
		c0.22-0.07,0.5-0.1,0.71-0.21c-0.17-0.08-0.36-0.07-0.55,0.03c-0.01,0.05-0.9,0.3-1.33,0.28c0.79-0.09,0.68-0.15,0.39-0.15
		c-0.37,0.05-0.74,0.09-1.1,0.13c0.13,0.03,0.25,0.07,0.38,0.09c-3.19,0.33-6.54,0.13-9.88-0.51c0.06-0.08-2.35-0.54-2-0.65
		l0.12,0.05c0.4,0.1,0.35,0.04,0.12-0.04c-0.23-0.1-0.64-0.24-0.97-0.32c0.67,0.25-1.27-0.18,0.38,0.31
		c-0.44-0.09-0.87-0.19-1.3-0.31c-1.59,0.14-3.8-1.47-5.19-2.11c0.13,0.05,0.18,0.06,0.2,0.05c-1.66-0.73-3.43-2.14-3.78-2.36
		l-0.08-0.17c-1.06-0.6-1.94-1.34-2.83-2.15c0.03,0,0.21,0.12,0-0.08c-0.58-0.37-1.16-0.9-1.62-1.41l0.06,0.02
		c-0.46-0.46-0.91-0.94-1.34-1.44c0.09-0.07-2.26-2.75-2.3-3.22c-0.57-0.58-0.95-1.35-1.41-2.02c0.01-0.01,0-0.05-0.04-0.15
		c-0.51-0.59-0.98-1.96-1.32-2.72c-0.26-0.48-0.2-0.25-0.15-0.01c-0.18-0.51-0.46-1.2-0.75-1.8c-0.26-0.61-0.49-1.14-0.53-1.34
		c-0.23-0.76,0.02-0.31,0.01-0.54c-0.35-1.13-0.19,0.26-0.51-1.3c0.05,0.18,0.16,0.5,0.14,0.37c-0.2-0.74-0.04-1.54-0.24-2.28
		l0.02,0.4c-0.13-0.53-0.19-1.18-0.24-1.71C7.02,42.5,7,42.08,6.89,42.01l-0.07,0.11c-0.07-0.9-0.18-1.81-0.15-2.71l0.02,0.02
		c-0.04-0.83,0.05-1.28-0.07-1.69l-0.03,0.29c0.02-0.73,0.03-1.45,0.1-2.18c0-0.12,0.01-0.64,0.05-0.78
		c-0.17-0.08,0.13-1.62,0.15-1.8c0.07-0.37,0.14-0.73,0.22-1.1c-0.13,0.83-0.01,0.44,0.08,0.22c0-0.25,0.01-0.46,0.04-0.69
		c0.05-0.23,0.12-0.47,0.23-0.8c-0.15-0.26-0.18-0.54-0.09-0.83c0.04-0.2,0.1-0.46,0.19-0.78c-0.07,0.13-0.08,0.27-0.05,0.41
		c0.07-0.18,0.11-0.36,0.14-0.54c0.07-0.12-0.03,0.3,0.06,0.17c0.12-0.96,0.54-1.87,0.86-2.77c-0.11,0.41,0.05,0.08,0.15-0.04
		c-0.1-0.13,0.49-1.29,0.43-1.23c0.56-1.17,1.33-2.62,2.07-3.86c0.58-0.87,1.11-1.85,1.85-2.6c0.21-0.18,0.58-0.8,0.86-1.16
		l0.02,0.09c0.46-0.68,0.98-1.32,1.5-1.96c-0.36,0.5-0.15,0.34,0.32-0.05c0,0,0.15-0.21,0.3-0.42c0.16-0.2,0.32-0.4,0.32-0.4
		l0.22-0.06c0.27-0.32,0.61-0.63,0.98-0.91c0.11-0.16,0.41-0.47,0.73-0.77c0.39-0.34,0.8-0.67,0.89-0.79
		c0.44-0.17,0.97-0.75,1.32-0.83c0.11-0.1,0.25-0.23,0.43-0.36c-0.22,0.06-0.33,0.05,0.03-0.15c0.03-0.02,0.05-0.04,0.08-0.05
		l0.2-0.02c0.34-0.24,0.69-0.49,0.94-0.63c-0.11,0.05-0.25,0.12-0.39,0.19c0.16-0.09,0.31-0.16,0.46-0.23
		c0.05-0.03,0.1-0.06,0.13-0.07c-0.02,0.02-0.05,0.03-0.08,0.05c0.23-0.11,0.47-0.23,0.77-0.44c1.34-0.59,2.82-1.67,4.42-2.05
		c-0.23,0.07-0.56,0.19-0.63,0.25c0.31-0.12,0.63-0.25,0.94-0.35c0.8-0.24,1.66-0.44,2.44-0.73l-0.08-0.06
		c0.81-0.26,1.64-0.52,2.48-0.65l0.03-0.1c1.36-0.2,2.98-0.73,4.36-0.47c0.63-0.25,1.61-0.05,2.27-0.05l0.17,0.07
		c0.64,0.03,1.27,0.04,1.91,0.07c0.87,0.12,1.7,0.25,2.51,0.33c0.8,0.13,1.59,0.21,2.33,0.41l0.01,0.02c0,0,0.38,0.07,0.76,0.15
		c0.38,0.09,0.75,0.18,0.75,0.18c-0.41-0.05,0.31,0.04,0.75,0.19c0.48,0.12,1.24,0.39,1.77,0.63l0.92,0.37
		c-1.04-0.36,0.04,0.12,0.06,0.22c0,0,0.15,0.04,0.3,0.09c0.15,0.05,0.3,0.1,0.3,0.1c0.22,0.14-0.39-0.11,0.02,0.1
		c0.65,0.21,1.25,0.61,1.91,0.77c-0.04-0.05-0.17-0.13-0.33-0.23c-0.05-0.02-0.05-0.02-0.01-0.01c-0.01-0.01-0.02-0.02-0.04-0.02
		c0.02,0.01,0.03,0.01,0.05,0.03c0.05,0.02,0.13,0.04,0.17,0.05c0.69,0.38,0.45,0.21,0.44,0.17c0.55,0.38,1.23,0.73,1.71,1.18
		c-0.69-0.64,1.72,1.1,1.32,0.66c0.47,0.49,0.37,0.27,0.65,0.6c-0.69-0.53-1.47-0.95-2.26-1.32c0.2,0.15,0.39,0.3,0.58,0.45
		c-0.47-0.15-1.39-0.88-1.79-1.06c0.27,0.12,0.83,0.48,0.83,0.52L55,10.14c-0.22-0.14-0.44-0.27-0.64-0.38
		c-0.55-0.28-1.14-0.55-1.73-0.75c0.62,0.32-0.8-0.29-0.37-0.01l0.51,0.21c0.06,0.04,0.06,0.05,0.02,0.05
		c1.32,0.63,2.59,1.35,3.8,2.15l-0.3-0.21l0.28,0.09l0.1,0.17c0.41,0.27,0.82,0.56,1.22,0.85c0.17,0,1.19,0.74,0.96,0.46
		c0.33,0.31,0.6,0.57,0.96,0.86c0.52,0.36-0.5-0.59-0.69-0.77c0.62,0.42,0.62,0.42,0.66,0.41c0.37,0.48,0.56,0.93,0.13,0.65
		c0.24,0.21,0.47,0.41,0.7,0.63c-0.13-0.15,0.09,0.03,0.36,0.28l-0.01,0.05c6.84,6.46,10.53,15.76,10.01,25.15
		c0.03-0.09,0.19-0.79,0.26-0.33L71.21,39.11z M59.69,13.76c-0.28-0.3-0.62-0.55-0.87-0.71C59.12,13.27,59.41,13.51,59.69,13.76
		 M49.53,7.48c-0.35-0.14-0.53-0.21-0.03,0C49.51,7.47,49.52,7.48,49.53,7.48 M43.95,6.36c-0.39-0.03-0.79-0.03-1.18,0
		c1.52,0.18,3.01,0.47,4.46,0.86c-0.1-0.04-0.19-0.07-0.25-0.09c0.34,0.13,0.97,0.28,1.28,0.33l-0.78-0.27
		c0.7,0.19,1.36,0.5,2.06,0.7c-0.13-0.12,0.58,0.02-0.1-0.31c-0.82-0.34-1.6-0.44-2.46-0.61c-0.32-0.05-0.71-0.13-1.26-0.26
		C45.4,6.67,44.46,6.4,43.95,6.36 M37.6,6.07c-0.25,0.02-0.52,0.06-0.78,0.12c0.3-0.02,0.61-0.04,0.91-0.05
		C37.66,6.13,37.57,6.1,37.6,6.07 M31.11,6.83c-0.14,0.07-0.18,0.18-0.15,0.28c0.37-0.1,0.75-0.18,1.13-0.26l0.11-0.16l0.05,0.13
		c0.38-0.08,0.76-0.15,1.15-0.22c-0.02-0.01-0.05-0.01-0.11-0.01C32.55,6.61,31.83,6.72,31.11,6.83 M25.46,8.8
		c-0.58,0.3-1.07,0.67-1.47,1c0.53-0.28,1.07-0.54,1.61-0.79c0.45-0.31,0.86-0.6,1.09-0.76c-0.33,0.15-0.65,0.31-0.96,0.49
		L25.46,8.8z M17.57,13.96c-0.15,0.13-0.06,0.07-0.04,0.07C17.54,14.01,17.55,13.99,17.57,13.96 M15.48,16.19
		c-0.06,0.1-0.14,0.22-0.22,0.34c0.18-0.2,0.37-0.4,0.55-0.59c-0.07-0.01-0.13-0.03-0.11-0.1L15.48,16.19 M7.35,31.85
		c-0.04,0.33-0.09,0.66-0.09,0.66c0.04-0.12,0.09-0.29,0.16-0.48c0.02-0.11,0.04-0.22,0.06-0.33c0.01-0.11,0.03-0.21,0.04-0.3
		c0,0.04,0,0.1,0,0.14c0.04-0.21,0.09-0.42,0.14-0.63C7.64,30.93,7.61,31,7.55,31.16c-0.01,0.07-0.02,0.15-0.03,0.24
		c0-0.22-0.01-0.36-0.06-0.21C7.47,31.19,7.4,31.52,7.35,31.85 M46.69,69.7c0.13-0.06,0.26-0.11-0.22,0.03L46.69,69.7 M56.03,10.44
		c-0.21-0.12-0.42-0.24-0.64-0.35c0.31,0.17,0.41,0.25,0.55,0.36C55.94,10.42,55.84,10.32,56.03,10.44 M56.45,11.05
		c0,0.1,0.41,0.3,0.83,0.59l-0.07-0.05C57.38,11.59,56.92,11.3,56.45,11.05 M57.75,11.98c0.07,0-0.15-0.12-0.38-0.27
		C57.5,11.79,57.63,11.88,57.75,11.98 M52.22,8.46c0.29,0.02-1.52-0.55-0.29-0.06C52.14,8.52,52.11,8.38,52.22,8.46 M53.96,9.81
		c0-0.02,0.09,0.02,0.21,0.07c-0.44-0.23-0.92-0.49-0.91-0.46L53.96,9.81z M54.16,9.89c0.23,0.12,0.44,0.25,0.57,0.31
		C54.61,10.12,54.35,9.97,54.16,9.89 M44.68,6.63c0.21,0.02,0.53,0.06,0.41,0.01L44.21,6.5C44.12,6.52,44.35,6.58,44.68,6.63
		 M71.39,40.07c0.03-0.22,0.05-0.45,0.06-0.68l-0.07,0.43L71.39,40.07z M71.42,38.61l-0.1-0.41c0,0.15,0,0.45-0.03,0.56L71.42,38.61
		z"/>
	<path class="st1" d="M74.93,28.96c-0.04-0.34,0.12-1.62-0.23-1.87c0.07-0.32,0.01-0.65,0.12-0.96c0.23-0.23,0.12-0.72-0.23-0.79
		c0.22-0.27,0.24-0.54,0.08-0.81c-0.06-0.19-0.14-0.38-0.24-0.55c0.1-0.22-0.08-0.59-0.15-0.8c-0.1-0.33-0.32-0.96-0.55-1.17
		c0.01-0.28-0.11-0.65-0.44-0.72c-0.29-0.85-0.49-1.76-0.93-2.56c0.05-0.54-0.92-1.64-1.18-1.96c-0.08-0.13-0.15-0.24-0.22-0.34
		c0.01-0.03,0.01-0.06,0.01-0.09c0.44-0.33,0.05-0.98-0.42-0.97c-0.11-0.51-0.59-1.15-0.97-1.47c-0.07-0.49-0.64-1.02-0.72-1.1
		c0.08-0.82-1.34-1.69-1.93-2.05c0.15-0.45-0.69-1.06-1.08-1.03c-0.09-0.21-0.37-0.39-0.59-0.36c-0.13-0.23-0.28-0.46-0.44-0.68
		c-0.11-0.12-0.2-0.21-0.37-0.34c-0.48-0.32-1.07-0.39-1.57-0.68c-0.06-0.26-0.22-0.42-0.5-0.47c-0.16-0.15-0.33-0.28-0.5-0.42
		c-0.15-0.34-0.41-0.49-0.78-0.48c-0.47-0.31-1.04-0.53-1.48-0.89c-0.12-0.11-0.26-0.19-0.4-0.2c-0.09-0.01-0.17,0.02-0.24,0.06
		c-0.24-0.1-0.45-0.14-0.66-0.08c0,0-0.03,0-0.08-0.01c0-0.18-0.07-0.32-0.23-0.43c0,0,0-0.01,0-0.01c0.09-0.61-1.1-0.81-1.46-1.06
		C56.51,3.21,55.55,2.92,55.24,3c-0.14-0.04-0.28-0.02-0.41,0.05c-0.11-0.18-0.27-0.28-0.47-0.31c-0.06-0.08-0.14-0.13-0.24-0.18
		c0,0,0,0,0,0c-0.79-0.49-0.78-0.15-1.48-0.19c-0.18-0.32-0.91-0.77-1.2-0.25c-0.3-0.07-0.61-0.11-0.92-0.13
		c-0.2-0.12-0.53-0.17-0.72,0.01c-0.52-0.11-0.9-0.47-1.43-0.55c-0.12-0.3-0.32-0.46-0.6-0.47c-0.56,0.01-1.79-0.81-2.24-0.19
		c-0.59-0.57-1.97-0.29-2.71-0.3c-0.33-0.07-1.1-0.22-1.35,0.06c-0.08-0.01-0.15-0.02-0.24-0.02c-0.12-0.12-0.26-0.21-0.34-0.25
		l-0.04-0.03c-0.17-0.19-0.65-0.27-0.82-0.06c-0.26,0.01-0.55,0.02-0.79,0.14c-0.62-0.31-1.32-0.22-1.95,0.04
		c-0.19-0.39-0.99-0.33-1.29-0.19c-0.26,0.04-0.51,0.08-0.76,0.14c-0.31-0.1-0.73-0.11-0.92,0.22l0,0
		c-0.19-0.06-0.39,0.01-0.52,0.16c0.01-0.02,0.04-0.05,0.04-0.06c-0.04,0.02-0.11,0.05-0.16,0.08c-0.4-0.03-0.74-0.07-0.84-0.11
		l-0.02-0.07c-0.49,0.09-0.99,0.2-1.48,0.31l-0.04-0.11l-0.03,0.01c-0.23-0.38-1.07-0.35-1.17,0.14c0,0,0,0-0.01,0l-0.11,0.04
		c-0.03-0.03-0.07-0.04-0.1-0.03c-0.19-0.01-0.45,0.02-0.59,0.15c-0.2,0.06-0.4,0.11-0.62,0.18l-0.1,0.02
		c-0.24,0.06-0.47,0.13-0.71,0.2l0.1-0.16c-0.47,0.11-0.96,0.22-1.41,0.36l-0.83,0.3c-0.32,0-0.64,0.14-0.83,0.23
		c-0.01,0-0.11,0.06-0.12,0.07c-0.18,0.1-0.38,0.21-0.56,0.28c-0.06-0.03-0.12-0.04-0.2-0.04c-0.69,0.02-1.3,0.61-1.84,0.96
		l0.01-0.23c-0.08,0.14-0.22,0.32-0.38,0.39c-0.07,0.01-0.13,0.04-0.2,0.08c-0.4,0.15-0.9,0.29-1.19,0.62l-0.04-0.02
		c-0.63,0.36-1.24,0.76-1.83,1.18c-0.36,0.1-0.61,0.36-0.79,0.56c-0.01,0.01-0.03,0.03-0.04,0.04c-0.73-0.07-1.29,1.22-1.73,1.64
		c-0.01,0-0.03-0.01-0.04-0.01c-0.51-0.04-1.22,0.48-1.23,1c-0.12,0.01-0.23,0.05-0.31,0.15c-0.14-0.01-0.26,0.03-0.37,0.12
		c-0.01,0.01-0.97,0.89-1.24,1.49c-0.4,0.43-0.79,0.86-1.16,1.3c-1.11,0.7-5.91,5.39-5.33,6.53c-0.38,0.1-0.77,0.52-0.47,0.9
		c0,0,0,0.01,0.01,0.01c-0.01,0.05-0.01,0.11-0.01,0.16c-0.21-0.11-0.8,0.18-0.8,0.45c-0.39,0.06-0.95,0.46-0.71,0.94
		C4.09,20.99,4,21.28,4.05,21.61c-0.14,0.12-0.3,0.28-0.44,0.52c-0.64,0.27-1.11,2.55-1.15,3.18C1.46,26,1.64,28.9,1.3,30.05
		c-0.43,0.17-0.28,0.62-0.26,0.94c-0.35,0.27-0.21,0.59-0.2,0.96c-0.86,0.67-0.16,3.11-0.11,3.97c-0.4,0.36-0.54,1.18-0.63,1.89
		c-0.72,0.97,0.36,4.08,0.6,5.23c-0.21,0.83-0.13,5.9,0.81,5.96c0.03,0.16,0.09,0.31,0.15,0.45c-0.16,0.27-0.22,0.56-0.19,0.86
		C1.52,50.77,1.6,51.77,2.07,52c-0.13,0.31,0.23,1.04,0.51,1.18c0.54,1.48,1.48,3.41,2.53,4.56c0,0.01,0,0.01-0.01,0.02
		c-0.17,0.67,1.18,2.04,1.57,2.5c-0.14,0.82,1.16,0.94,1.65,1.11c-0.03,1.08,1.84,2.72,2.61,3.28c0.16,0.66,1.56,1.75,2.14,1.82
		c0.2,0.2,0.58,0.47,1.33,0.85c0,0.01,0,0.02,0,0.03c0.08,0.49,1.09,0.47,1.41,0.62c0.11,0.32,0.63,0.58,0.85,0.63
		c0.17,0.69,1.08,0.41,1.35,0.7c0.27,0.09,0.72,0.5,0.77,0.54c0.02,0.42,0.24,0.58,0.64,0.49c0.02-0.01,0.04-0.01,0.08,0
		c0.2,0.34,0.51,0.57,0.92,0.7c-0.99,0.82,2.07,1.28,2.25,1.36c0.16,0.26,0.39,0.4,0.71,0.44c0.13,0.09,0.24,0.16,0.37,0.23
		c0.23,0.33,1.48,1.03,1.87,0.57c0.09-0.04,0.2-0.1,0.28-0.18c-0.02-0.02,0.67,0.58,0.67,0.56c0.15,0.72,2.87,0.98,3.49,1
		c0.27,0.47,1.86,0.54,2.34,0.5c0.08,0.09,0.19,0.15,0.34,0.19c0.71,0.77,2.47,0.61,3.41,0.53c0.72-0.02,2.83,0.53,3.45,0.17
		c2.48,0.22,4.85-0.42,7.29-0.7c0.34-0.06,0.68-0.11,1.06-0.15c0.43-0.06,0.71-0.16,0.96-0.34c0.04-0.02,0.07-0.05,0.13-0.1
		c0.04-0.02,0.08-0.05,0.11-0.08c0.36,0.21,0.97-0.31,1.17-0.56c0.89-0.5,3.28,0.06,3.68-1.19c0.23-0.1,0.46-0.19,0.7-0.28
		c0,0,0.01,0,0.01,0c0.16,0.05,0.34,0.02,0.47-0.09c0.4,0.07,1.08-0.53,1.37-0.76c0.21,0.07,0.5-0.06,1.07-0.32
		c0,0,0.12-0.08,0.29-0.21l0.89-0.04l-0.69-0.12c0.17-0.14,0.36-0.32,0.51-0.5l0.11-0.08c0.09-0.05,0.19-0.11,0.27-0.19
		c0.08-0.05,0.14-0.11,0.18-0.2l0.12-0.05c0.25-0.13,0.48-0.29,0.69-0.47l0.04-0.03c0.21-0.17,0.4-0.35,0.58-0.53l0.02,0l-0.01-0.01
		c0.01-0.01,0.01-0.02,0.02-0.02c0.43-0.4,0.81-0.84,1.21-1.27c0.29-0.24,0.59-0.47,0.91-0.68c0,0.01,0.01,0.01,0.02,0.02
		c0.02,0.03,0.15,0.12,0.31-0.04l0.9-1.04l0.32-0.32l-0.08,0.05l0.16-0.18l-0.16-0.02l0.13-0.16c0.31-0.18,0.62-0.36,0.93-0.55
		l-0.41,0.02l0.04-0.02l-0.03,0c0.05-0.05,0.08-0.11,0.09-0.17l0.25-0.14l-0.25,0.01c0-0.02,0-0.04,0-0.06c0,0,0-0.01,0-0.01
		c0.09-0.06,0.16-0.12,0.2-0.17l0.02,0.08c0.19-0.29,0.36-0.59,0.52-0.9l0.15,0.16c0.19-0.25,0.33-0.51,0.45-0.81
		c0.08-0.14,0.16-0.29,0.22-0.44c0.23-0.17,0.37-0.29,0.47-0.41c0.5-0.4,0.88-1,1.29-1.49l-0.12-0.12l-0.04,0.04
		c0.1-0.53,0.47-0.99,0.74-1.44c0.05-0.03,0.09-0.06,0.13-0.1c0.01,0.01,0.03,0.01,0.05,0.01c0.15-0.01,0.25-0.16,0.34-0.26l0,0
		c0.05-0.05,0.1-0.1,0.15-0.15c0.1-0.04,0.17-0.1,0.19-0.2c0.06-0.07,0.12-0.13,0.15-0.14c-0.01,0-0.03,0.01-0.05-0.01
		c-0.02-0.01-0.02-0.02-0.02-0.04c0,0,0.01-0.01,0.01-0.01l0.15,0.02c0.11-0.53,0.61-0.86,0.72-1.41c0.12-0.04,0.19-0.13,0.2-0.26
		c0.02-0.02,0.03-0.05,0.05-0.06l0.07,0.14c0.09-0.16,0.14-0.34,0.13-0.53c-0.07-0.04-0.12,0-0.2,0.07
		c0.51-1.17,1.42-2.08,1.66-3.37c0.21-0.72,0.25-1.38,0.37-2.11c0.04-0.09,0.06-0.17,0.1-0.25l-0.04,0.44
		c0.32-0.65,0.61-1.32,0.7-2.05c0.07-0.02,0.14-0.1,0.24-0.24L74,48.83c0.01-0.2,0-0.41-0.03-0.61l0.31,0.45
		c-0.02-0.37-0.12-0.75-0.29-1.08l-0.07,0.18c0,0.02-0.01,0.03-0.02,0.04l-0.08-0.11c-0.01,0.1-0.02,0.21-0.03,0.31
		c-0.02-0.07-0.08-0.11-0.17-0.11c-0.02,0-0.03,0.03-0.05,0.04c0.01-0.19,0.03-0.38,0.03-0.56l0.09,0.51
		c0.15-0.97,0.44-2.19-0.08-3.06l-0.16,0.54c-0.02,0.03-0.04,0.08-0.04,0.15l0.19,0.04c0.01,0.02,0.01,0.04,0.01,0.07
		c0.01,0.06,0,0.09,0,0.14c-0.73,0.64-0.5,1.61-0.63,2.48l-0.31-0.61l0.03,0.82c-0.23,0.43-0.31,1.03-0.57,1.42
		c0.02-0.01,0.05-0.03,0.1-0.01l-0.03,0.05l-0.14-0.01l-0.04,0.31l-0.12-0.06c-0.2,0.37-0.37,1.68-0.68,1.96l-0.05-0.01
		c0.03-0.08-0.41,0.93-0.02,0.94c0,0.01,0.03,0.07-0.02,0.39l-0.89,0.49l0.17,0.28c-0.04,0.07-0.07,0.12-0.1,0.16l-0.1-0.16
		c-0.04,0.14-0.14,0.61-0.03,0.67l0,0c-0.06,0.07-0.94,1.78-1.09,1.67l-0.14-0.01c-0.01,0.1,0.01,0.2,0.06,0.28
		c-0.19,0.26-0.35,0.53-0.47,0.83c-0.01-0.02-0.02-0.04-0.05-0.06c-0.12-0.09-0.38,0.18-0.44,0.26c-0.21,0.68-0.69,0.95-1.02,1.59
		L67,59.48l0.07,0.06c0.06,0.32-1.01,1.64-1.08,1.76c-0.71,0.39-1.22,1.46-1.79,2.05l0.04,0.05l-0.09,0.03
		c0.09,0.26-0.58,0.92-0.74,1.09c0.02-0.04,0.06-0.1,0.1-0.16l-0.19-0.15l-0.46,0.48c-0.04,0.16-0.11,0.3-0.22,0.43l-0.03-0.23
		c-0.7,0.76-1.29,1.65-2.14,2.27c0.02,0.05,0.04,0.1,0.08,0.14c-0.48,0.45-1.02,0.87-1.69,0.91l0.39,0.17c0,0,0,0.06-0.13,0.18
		c-0.25,0.22-0.32,0.23-0.32,0.24c-0.15-0.04-0.29-0.03-0.42,0.03l-0.02,0.04c-0.09,0.09-0.18,0.17-0.28,0.25
		c-0.42-0.07-0.75-0.02-1.04,0.24c-0.45,0.02-0.72,0.23-0.91,0.43c-0.35-0.04-0.63,0.1-0.81,0.4c-0.36-0.1-0.79,0.06-0.9,0.43
		c-0.22-0.06-0.4-0.03-0.55,0.1c-0.35,0.18-0.7,0.38-1.03,0.6c-0.3,0.06-0.59,0.14-0.88,0.24c-0.32-0.23-0.58-0.19-0.76,0.13
		c-0.07,0.06-0.18,0.16-0.33,0.26c-0.38-0.14-0.94,0.14-1.3,0.22c-0.38-0.38-0.95,0.28-1.31,0.43l0.01,0.01
		c-0.03,0-0.06,0.01-0.09,0.03l-0.02,0c-0.45,0.15-0.93,0.29-1.36,0.47c-0.06,0-0.11,0.01-0.15,0.03c-0.31,0.06-1.35-0.31-1.31,0.34
		c-0.02,0.02-0.06,0.05-0.1,0.08l-0.04,0c-0.13-0.33-0.78-0.44-0.93-0.04c-0.16,0.06-0.31,0.13-0.47,0.21
		c-0.05,0.01-0.1,0.02-0.15,0.03c-0.25-0.19-0.7-0.33-0.88,0.06c-0.11,0.01-0.27,0.03-0.43,0.1c-0.06-0.04-0.11-0.08-0.15-0.13
		c-0.05-0.23-0.28-0.44-0.49-0.38c-0.26,0.01-0.68,0.1-0.84,0.34c-0.13-0.14-0.29-0.21-0.48-0.2c-0.38,0.09-0.76,0.19-1.13,0.32
		c-0.27-0.22-1.99-0.07-2.34-0.05c-0.13-0.2-0.41-0.25-0.8-0.29c-0.1-0.02-0.19,0.01-0.28,0.05c-0.34-0.53-2.88-1.02-3.32-0.47
		l-0.47-0.13l0.4,0.21c0,0.01-0.01,0.01-0.01,0.02c-0.88-0.15-1.33-1.36-2.38-0.84c-0.05-0.02-0.09-0.04-0.14-0.06
		c-0.12-0.23-0.32-0.36-0.57-0.37l0.01-0.05c-0.39-0.09-0.77-0.21-1.14-0.36l0.02,0.02c-0.17-0.05-0.32-0.05-0.47-0.02
		c-0.21-0.29-0.51-0.45-0.88-0.47c-0.29-0.17-0.47-0.2-0.61-0.19c-0.31-0.09-0.62-0.19-0.92-0.3c-0.11-0.11-0.28-0.21-0.37-0.24
		l-0.04,0.1c-0.18-0.06-0.36-0.12-0.55-0.19c-0.16-0.69-4.65-3.06-5.11-3.2c-0.14-0.22-0.34-0.36-0.61-0.42
		c-0.92-0.79-2.23-1.01-3.15-1.92c-0.01-0.73-1.01-0.74-1.46-0.98c-0.08-0.38-3.9-4.53-4.14-4.5c-0.56-0.3-0.65-1.13-1.33-1.34
		c-0.28-0.67-0.49-1.32-0.83-1.97c-0.15-0.25-0.35-0.37-0.53-0.47c0.06-0.29-0.17-0.59-0.44-0.66h0c-0.07-0.05-0.14-0.1-0.22-0.15
		c0.06-0.41-0.09-0.75-0.4-1.01c-0.05-0.15-0.14-0.22-0.28-0.23c-0.06-0.23-0.1-0.45-0.1-0.55c0.01-0.03,0.02-0.06,0.03-0.09
		c0.08-0.3-0.28-0.83-0.45-1.05c0.04-0.15,0.02-0.31-0.08-0.44c0,0,0,0,0,0L5.23,51.2c0.13-0.29-0.09-0.85-0.38-1
		c-0.02-0.24-0.07-0.47-0.09-0.58c-0.04-0.23-0.09-0.47-0.16-0.71c0.21-0.28-0.42-4.35-0.82-4.76c0.01-0.07,0-0.15-0.02-0.22
		c0.16-0.15,0.18-0.35,0.06-0.6c0.03-0.43,0.02-0.86-0.02-1.29c0.08-0.45-0.06-3.58-0.47-3.83c-0.04-0.18-0.08-0.35-0.15-0.52
		c0.13-0.96,0.36-1.9,0.41-2.87c-0.01-0.17-0.03-0.44-0.15-0.64c0,0,0,0,0,0c0.66-0.28,0.58-3.07,0.58-3.68
		c0.42-0.66,0.56-2.07,0.92-2.85c0.45-0.83,0.89-1.71,1-2.54l0.22-0.95C6.7,24.01,8,21.01,8.23,20.47c0.61-0.36,3.35-3.55,3.34-4.28
		c0.21-0.11,0.43-0.46,0.32-0.7c0.8-1.08,1.75-2.01,2.72-2.94c1.16-1.01,4.03-2.44,4.36-3.98c0.01,0.01,0.01,0.01,0.02,0.01
		c0.53,0.31,3.96-2.35,4.84-2.78c0.3-0.16,0.6-0.31,0.9-0.47c0.03,0.01,0.06,0.01,0.09,0.01c0.45,0.04,0.97-0.24,1.23-0.38
		c0.18-0.09,0.36-0.19,0.5-0.29c0.09,0.03,0.17,0.04,0.25,0.05c0.35-0.02,0.65-0.2,0.93-0.37c0,0,0.01,0,0.01-0.01
		c0.19,0.06,0.36,0.04,0.51-0.06c0.4-0.11,0.77-0.26,1.13-0.46c0.5-0.13,1.01-0.24,1.53-0.32c0.19,0.1,0.57,0.1,0.78,0.09
		c0.19,0.01,0.35-0.09,0.46-0.33c0.19-0.01,0.41-0.03,0.61-0.1c0.3,0.11,0.72,0.1,1.12,0.05c0.25,0.18,0.85,0.1,1.09,0.08l0,0
		c0.09,0.01,0.07,0,0.13-0.01c0.62-0.03,0.99-0.1,1.22-0.24c0.73,0.17,2.01,0.19,2.75,0.19c0.97-0.08,1.91-0.11,2.9-0.1
		c0.18,0.73,3.09,0.28,3.65,0.35c0.16,0.53,3.37,0.88,3.9,0.98c0.13,0.14,0.3,0.16,0.51,0.17c0.41,0.1,0.88,0.27,1.12-0.22
		c0.11,0.02,0.21,0.03,0.32,0.05c0.06,0.04,0.12,0.1,0.18,0.13L51.5,4.74l0.15,0c-0.05,0.35,0.22,0.53,0.54,0.55
		c0.23,0.23,0.8,0.24,1.1,0.22c0.12,0.2,0.27,0.3,0.45,0.27c0.33-0.01,0.62-0.01,0.96,0.1c0.07,0.15,0.18,0.24,0.33,0.29
		c0.94,0.35,1.97,0.47,2.86,0.96c0.02,0.26,0.24,0.43,0.36,0.53c0.02,0.02,0.05,0.04,0.07,0.06c0.04,0.4,1.06,0.84,1.41,0.66
		c0.09,0.04,0.19,0.08,0.28,0.11c0.12,0.39,1.06,0.82,1.4,0.92c0.14,0.13,0.28,0.25,0.42,0.36c0.09,0.31,0.8,0.7,1.06,0.91l0.1,0.1
		l0.04-0.07c0.08,0.07,0.18,0.11,0.31,0.1c0.29,0.05,0.58,0.35,0.81,0.52c0.13,0.2,0.24,0.38,0.24,0.45l0,0.06
		c0.71,0.55,1.36,1.18,2.05,1.76c0.06,0.25,0.15,0.57,0.42,0.69c0.05,0.68,1.61,1.82,1.93,2.19c0.35,0.85,0.86,1.64,1.41,2.38
		c-0.03,0.1-0.01,0.19,0.06,0.28c0.37,0.88,0.93,1.73,1.39,2.57c-0.09,0.43,0.41,2.27,0.67,2.55c0.05,0.25,0.1,0.5,0.14,0.75
		c0.03,0.57,0.15,1.13,0.27,1.69c0.07,0.67,0.1,1.35,0.09,2.02c-0.11,0.12-0.16,0.25-0.14,0.39c0.02,0.34,0.02,0.68,0.02,1.02
		c-0.16,0.89-0.44,1.69-0.52,2.6c-0.02,0.01-0.04,0.01-0.06,0.02l-0.22,0.06l-0.01,0.08c0,0-0.01,0.07-0.02,0.17l-0.01,0.03l0.01,0
		c-0.01,0.06-0.02,0.12-0.03,0.18c-0.05,0.02-0.08,0.05-0.1,0.1c-0.02,0.03-0.04,0.07-0.06,0.1c-0.04,0.04-0.08,0.09-0.13,0.13
		c-0.01-0.01-0.03,0-0.04,0c0.03-0.03,0.07-0.06,0.11-0.08c0.02-0.05,0.01-0.13-0.05-0.15l0.2-0.36c-0.23,0.22-0.45,0.46-0.64,0.71
		l0.1,0.08c0.01-0.01,0.04-0.03,0.05-0.04c-0.05,0.05-0.1,0.1-0.16,0.15l-0.05,0.03c-0.03,0.02-0.05,0.03-0.08,0.04l0-0.05
		c-0.03,0.04-0.06,0.07-0.1,0.1v0c-0.2,0.04-0.22,0.1-0.23,0.11l-0.02,0.06c-0.06,0.04-0.12,0.08-0.18,0.12l-0.01,0.01
		c-0.11,0.04-0.19,0.06-0.36,0.07l-0.03,0.01c-0.07,0.04-0.11,0.07-0.14,0.1l0.07-0.19c-0.12,0.11-0.24,0.22-0.37,0.32
		c-0.09-0.04-0.18-0.04-0.27-0.02l0-0.02l-0.07,0.04c-0.01,0-0.01,0-0.02,0c-0.14-0.17-0.37-0.23-0.57-0.13
		c-0.35-0.04-0.7-0.07-1.05-0.07c-0.17-0.34-0.82-0.37-1.04-0.07c-0.22-0.09-0.43-0.18-0.65-0.28c-0.12-0.06-0.85,0.06-0.89,0.03
		c-0.38-0.18-0.5-0.64-0.98-0.69c-0.36-0.1-0.65-0.16-0.9-0.19c-0.15-0.15-0.33-0.25-0.53-0.3c-0.03-0.02-0.06-0.03-0.09-0.05
		c-0.01-0.01-0.03-0.02-0.05-0.03l0.08-0.04l-0.06-0.03c0,0,0,0,0.01-0.01c0.01-0.01,0.02-0.02,0.02-0.03
		c0.07-0.1,0.12-0.22,0.15-0.34c0.42-0.36,0.53-1.26,0.63-1.75l-0.08-0.04c0.08-0.35,0.1-0.73,0.11-1.08l-0.08,0.02
		c0.03-0.36,0.06-0.71,0.09-1.07l0.01,0c0.08-0.38,0.01-0.7-0.08-1.08c-0.18-0.55-0.88-0.83-1.41-0.52
		c-0.19,0.16-0.28,0.32-0.34,0.45l-0.01,0l0,0.01h0c-0.01,0.03-0.02,0.06-0.02,0.08c-0.04,0.1-0.05,0.24-0.05,0.34h0
		c-0.01,0.1-0.16,0.49,0.04,0.46c0.01,0.03,0.02,0.06,0.06,0.07c0.02,0.01,0.04,0.01,0.07-0.01c0.01,0.02,0.01,0.04,0.02,0.07
		c-0.02,0.18-0.04,0.37-0.06,0.55l-0.03,0.04c0.04,0.24,0.02,0.66,0.09,0.86c-0.04,0.15-0.07,0.3-0.08,0.46l-0.12,0.05
		c0.01,0.09,0.02,0.17,0.03,0.26l-0.02-0.03l0.03,0.21c-0.02,0.04-0.04,0.07-0.06,0.09c0-0.01,0-0.02,0-0.04l-0.13-0.01
		c-0.03,0.29-0.06,0.4-0.08,0.5c0,0.01,0,0.02-0.01,0.02c-0.11-0.06-0.21-0.06-0.29,0c-0.1-0.05-0.2-0.07-0.3-0.07
		c-0.01-0.01-0.02-0.02-0.03-0.03c-0.06-0.07-0.14-0.15-0.23-0.22c-0.25-0.26-0.51-0.51-0.78-0.76c-0.11-0.14-0.2-0.28-0.3-0.43
		l-0.01,0.11c-0.06-0.12-0.14-0.23-0.24-0.33c0-0.01,0-0.01,0-0.02l0.06-0.06c-0.19-0.26-0.38-0.52-0.57-0.78l0.31,0.28
		c-0.13-0.29-0.52-0.92-0.87-0.86c-0.07-0.19-0.13-0.3-0.23-0.4l0.06-0.03c-0.13-0.27-0.24-0.7-0.48-0.89c0,0,0.01-0.01,0.01-0.01
		c0.02-0.02,0.04-0.06,0.05-0.09l0.51-0.6l-0.05-0.05c0.09-0.11,0.18-0.22,0.29-0.31l0,0c0.31-0.32,0.6-0.65,0.89-0.98l-0.17-0.02
		c0.12-0.32,0.46-0.64,0.62-0.95c0.1-0.1,0.19-0.2,0.29-0.29l-0.09,0.41c0.08-0.1,0.53-0.88,0.29-0.93c0,0-0.01-0.03,0-0.13
		c0.13,0.03,0.19-0.05,0.19-0.23c0.19-0.42-0.17-1.13-0.26-1.54l-0.12,0.01c0,0,0-0.01-0.01-0.01c-0.17-0.37-0.31-0.77-0.68-1
		l0.01-0.01l-0.01-0.07l-0.02-0.02c-0.1-0.06-0.14-0.06-0.17-0.06c-0.33-0.21-0.68-0.29-1.06-0.25c-0.19-0.16-0.69-0.04-1.01,0.17
		c-0.19,0.14-0.38,0.28-0.57,0.41l-0.05-0.05c-0.19,0.18-0.36,0.38-0.51,0.6l-0.01-0.03c-0.18,0.25-0.35,0.58-0.37,0.89l-0.01-0.02
		c-0.26,0.5-0.32,0.99-0.27,1.54l-0.09,0.06c-0.06,0.56-0.09,1.23,0.07,1.78l-0.02,0.01c0.14,0.48,0.22,0.99,0.34,1.48
		c0.01,0.02,0.01,0.03,0.02,0.05c-0.04,0.08-0.05,0.17-0.04,0.26l-0.24,0.45l0.11,0.07c0.03-0.03,0.05-0.06,0.07-0.08
		c0,0.02,0,0.04,0.01,0.06c-0.03,0.03-0.06,0.07-0.08,0.09c-0.14-0.23-0.56,0.49-0.64,0.56l-0.03-0.03
		c-0.82,1.18-1.56,2.48-1.67,3.94l0.02-0.02c-0.03,0.12-0.01,0.28,0.02,0.41c-0.05-0.01-0.08,0.02-0.08,0.1
		c0.02,0.26,0.06,0.53,0.11,0.79l0.03-0.31c0.08,0.16,0.13,0.33,0.14,0.51c-0.02,0.03-0.03,0.06-0.02,0.1
		c0,0.03,0.01,0.07,0.07,0.17c0.04,0.1,0.09,0.19,0.13,0.28l0.02,0.03c0.02,0.04,0.04,0.07,0.07,0.13l0.28,0.36l-0.06-0.27
		c0.03,0.07,0.08,0.1,0.13,0.1c0.42,0.68,1.13,0.92,1.72,1.4l0.02,0.01c0.37,0.11,0.73,0.22,1.1,0.33l0.03-0.1
		c0.02,0,0.06,0,0.11,0.01c-0.01,0.16,0.96,0.29,1.03,0.32c0.01,0,0.02,0.01,0.02,0.01l0.02-0.05l0,0.01
		c0.13-0.03,0.26-0.05,0.39-0.07c0.09-0.01,0.29-0.04,0.36-0.11l0,0c0.05,0.03,0.1,0.04,0.15,0.04l0.02,0
		c0.35-0.13,0.75-0.27,1.15-0.46c0.44-0.19,0.85-0.49,1.18-0.83c-0.01-0.04-0.03-0.07-0.07-0.08c0,0,0,0,0,0l0.42-0.26l0.01-0.02
		c0-0.07,0.02-0.14,0.06-0.21l0.07-0.02l0.17,0.14c1.11,0.81,2.41,1.34,3.67,1.85c0,0,0,0,0,0.01c0.14,0.08,0.26,0.12,0.37,0.14
		c0.07,0.03,0.15,0.06,0.22,0.09l0.03-0.06c0.03,0.01,0.07,0.01,0.1,0.02c0,0,0,0,0,0c0.05,0.02,0.13,0.03,0.25,0.05l0.01-0.07
		c0.14,0.05,0.3,0.1,0.47,0.15l0.02,0.01l0.02-0.01c0.03-0.01,0.1-0.01,0.18-0.01l-0.03,0.01l0.13,0c0.04,0,0.08,0.01,0.12,0.01
		c0.06,0.01,0.09,0.01,0.14,0.01l-0.47,0.06l0.66,0.13l0.04-0.12l-0.17-0.07c0.11,0.02,0.21,0,0.31-0.05l0.13,0.23l0.47-0.26
		c-0.11,0.01-0.38,0.05-0.48,0.01l-0.07-0.04l0.04-0.05l-0.14,0l-0.03-0.02l0.01,0.02l-0.07,0c0-0.03-0.02-0.06-0.04-0.08
		c0.03,0,0.05,0,0.08,0c0.24,0.11,0.5,0.1,0.61,0.09c0.11-0.01,0.22-0.02,0.32-0.03c0.35,0.19,0.73,0.14,0.94-0.13
		c0.01-0.02,0.03-0.04,0.04-0.06c0.01,0,0.01,0,0.02-0.01c0.09,0.07,0.18,0.14,0.29,0.12c0.07-0.01,0.13-0.05,0.19-0.08l-0.17,0.22
		c0.14-0.07,0.28-0.14,0.41-0.22c0.03,0,0.06,0.01,0.09,0.01c0.07,0,0.15-0.01,0.23-0.02c0.31,0.28,0.76,0.02,1.07-0.14
		c0.21-0.09,0.44-0.24,0.74-0.46c0.11-0.1,0.23-0.21,0.36-0.36c0.05-0.07,0.1-0.14,0.14-0.2c0.02-0.02,0.04-0.03,0.06-0.05
		c0.1-0.09,0.19-0.2,0.28-0.31c0,0,0,0,0,0l0.04,0.13l0.01-0.16c0.01,0,0.01,0,0.01-0.01c0.02-0.02,0.04-0.04,0.05-0.04l-0.01-0.02
		l0.02,0.02c0.09-0.12,0.12-0.18,0.1-0.23c0.31-0.46,0.56-0.96,0.79-1.46c0.25-0.13,0.31-0.54,0.1-0.73
		c-0.02-0.07-0.01-0.24,0.01-0.41c0.28-0.04,0.42-0.35,0.43-0.59c0.27-0.24,0.15-0.53,0.07-0.78
		C75.13,30.03,74.98,29.33,74.93,28.96 M73.3,48.3l0.01,0.07c0,0-0.01,0-0.01,0c-0.02-0.09-0.03-0.17-0.03-0.26
		C73.29,48.16,73.3,48.23,73.3,48.3 M72.71,48.93l0.01-0.1l0.01,0.23c-0.01,0.01-0.02,0.02-0.03,0.03
		C72.7,49.05,72.7,49,72.71,48.93 M60.88,67.69c-0.01,0.01-0.02,0.02-0.03,0.03c0,0,0,0,0-0.01c0-0.01,0.01-0.03,0.02-0.05
		C60.87,67.67,60.87,67.68,60.88,67.69C60.88,67.68,60.88,67.69,60.88,67.69 M60.83,67.39c0.03,0,0.05,0,0.08,0
		c-0.01,0-0.01,0.01-0.01,0.01c-0.04,0.03-0.06,0.07-0.07,0.11l-0.04-0.03L60.83,67.39z M60.6,67.35c0,0,0.01,0.01,0.01,0.01
		l-0.03,0.02L60.6,67.35z M59.79,33.25l-0.25,0.16l0.27-0.09c0,0.11-0.01,0.22-0.03,0.33c-0.04,0.04-0.07,0.08-0.08,0.13
		c0,0,0,0.01,0,0.01c-0.21,0.11-0.46,0.22-0.68,0.29l0.06-0.17c-0.1,0.14-0.21,0.2-0.35,0.27l0.03-0.1
		c-0.16,0.04-0.24,0.15-0.24,0.33c-0.12,0.01-0.24,0.05-0.34,0.12c0,0,0,0.01-0.01,0.01c-0.02,0-0.04,0.01-0.05,0.02
		c-0.12,0.01-0.24,0.04-0.35,0.08c-0.05-0.01-0.08,0-0.11,0.01c-0.06-0.02-0.13-0.05-0.18-0.09l0.02,0.16c0,0-0.01-0.01-0.01-0.01
		c-0.06-0.06-0.12-0.08-0.18-0.07c-0.02-0.05-0.04-0.09-0.07-0.14l0.06-0.03c-0.05-0.06-0.11-0.09-0.19-0.1
		c-0.01,0-0.01,0.01-0.02,0.01c-0.01,0-0.01-0.01-0.02-0.01c-0.04-0.04-0.11-0.01-0.15,0.01c-0.17,0.06-0.31-0.2-0.35-0.34
		l0.09,0.41c0,0,0,0.01,0,0.01c-0.01-0.01-0.01-0.02-0.02-0.02c-0.03-0.04-0.07-0.08-0.12-0.09l0.01-0.04
		c-0.06,0.02-0.13,0.03-0.2,0.03c-0.03,0-0.07,0-0.1,0c0-0.02-0.01-0.03-0.02-0.05c-0.09-0.05-0.18-0.08-0.28-0.09
		c0-0.01,0-0.01,0.01-0.02l0.03-0.06l-0.15-0.07l0.01,0c-0.06-0.07-0.14-0.1-0.24-0.11l0,0c-0.1-0.12-0.14-0.16-0.26-0.16l0.05-0.09
		l-0.11,0.02c-0.01-0.01-0.02-0.04-0.03-0.05c-0.02-0.04-0.05-0.08-0.08-0.12l0.38,0.03c-0.3-0.02-0.53-0.16-0.67-0.41
		c-0.06-0.07-0.13-0.1-0.21-0.08l-0.1-0.06c0-0.03-0.01-0.06-0.01-0.09c0-0.01,0-0.02-0.01-0.03l0.05-0.01
		c-0.05-0.32-0.05-0.67,0.01-1l0.05-0.01l-0.01-0.24l-0.07,0.05c-0.01-0.01-0.02-0.02-0.02-0.03c0.02,0,0.03,0,0.04,0l0.01,0
		c0.03-0.02,0.05-0.04,0.05-0.08l0,0l0,0v-0.01c0.01-0.04,0.02-0.07,0.03-0.11l0.05-0.12l-0.16,0.05c0-0.01,0-0.02-0.01-0.02
		c0.07-0.14,0.12-0.28,0.16-0.43l0.05-0.02c-0.02-0.1,0-0.22,0.04-0.31c0.05-0.05,0.1-0.09,0.15-0.13c0,0,0.01,0,0.02,0l-0.01-0.13
		c0.01,0.01,0.02,0.02,0.02,0.03c0-0.01,0.01-0.03,0.01-0.05c0-0.02,0.01-0.04,0.01-0.06c0.03-0.01,0.05-0.01,0.07-0.03
		c0.08-0.2,0.2-0.41,0.33-0.59l-0.01-0.01l0.08-0.01c0.02-0.04,0.01-0.09-0.01-0.13l0.46-0.06l-0.44-0.06
		c0.21-0.34,0.46-0.65,0.75-0.92l0.04,0.05c0.11,0.14,0.19,0.19,0.19,0.38l0.1-0.13c0.01-0.02,0-0.03,0.01-0.05
		c0.01,0.01,0.01,0.03,0.02,0.03l0.04,0.01l0.05-0.04l0-0.04c0.11,0.18,0.25,0.38,0.37,0.57c-0.01,0-0.02,0-0.04,0.01v0
		c-0.04-0.01-0.07,0-0.11,0.01l-0.11-0.16l-0.12-0.05c-0.04-0.08-0.15-0.17-0.23-0.08c-0.04-0.03-0.07-0.07-0.1-0.11l-0.02,0.13
		c-0.01,0.01-0.02,0.02-0.02,0.04l0.02,0.06l0.03,0l0.02,0.05l-0.22-0.07l0.25,0.21c0.07,0.06,0.13,0.06,0.16-0.03l0.02,0.02l0-0.02
		c0,0,0,0,0,0l0.04,0.02l0-0.01c0.06,0,0.13,0,0.2,0l0.01,0.01c-0.01,0-0.01,0.01-0.02,0l-0.02,0.06v0l-0.02,0.06
		c0.01,0,0.02,0.01,0.03,0.01c0.03,0.01,0.06,0.02,0.09,0.02l-0.01,0.01l-0.01,0.01l-0.05-0.02l0,0.01c-0.01,0-0.01-0.01-0.02-0.02
		c-0.01,0-0.02,0.01-0.03,0.01l-0.12-0.06l0,0.1c0,0.01,0,0.02,0,0.03c0,0,0,0,0,0l-0.01,0l0.01,0c0,0,0,0.01,0,0.01l-0.41,0.32
		c0.11-0.04,0.45-0.15,0.53-0.27l0.07,0.03l0,0c-0.01,0.02-0.05,0.06-0.03,0.13l-0.03,0l-0.01,0.13l0.06,0.01l0,0.02l0.01-0.02
		l0.03,0l0.01-0.08l0-0.01L57,29.81l-0.02,0.04l0.05,0.03c-0.05,0-0.08,0.03-0.1,0.06l-0.18-0.04c0.11,0.15,0.26,0.24,0.45,0.26
		c0,0.02,0,0.04,0.02,0.05l0,0l0.03,0.19l-0.18,0.08l0.3-0.01l-0.01,0.02l0.03-0.02l0.12,0l-0.16,0.1l0.25,0.04
		c0,0.01,0,0.01-0.01,0.03c0.04,0.02,0.08,0.03,0.12,0.05c-0.01,0.01-0.03,0.01-0.04,0c0,0,0.02,0.02,0.02,0.03
		c0,0-0.01,0.01-0.01,0.01c0,0,0.01,0,0.01-0.01c0,0,0,0,0,0c0,0.01,0.01,0.01,0.01,0.02l0,0.02l-0.03,0c0,0.01,0,0.02,0,0.03
		l-0.03,0.03l0.03,0.03l0,0l0.04,0.03l0.03-0.04c0,0,0,0,0.01-0.01c0.03,0.1,0.01,0.23-0.03,0.33l0.13-0.12l0.01,0.02l0,0l0.03,0.03
		c0,0.01,0.01,0.02,0.02,0.02c0,0.01,0,0.02,0,0.02c0,0.03,0.03,0.06,0.11,0.07l0.06,0.08c0.01,0.05,0.03,0.1,0.05,0.13l-0.01,0
		l0.03,0.02c0.02,0.02,0.03,0.03,0.05,0.04c0.02,0.02,0.04,0.04,0.07,0.04l0.09,0.06c0.05,0.06,0.1,0.11,0.17,0.16
		c0.02,0.01,0.03,0.02,0.04,0.03c0.02,0.06,0.04,0.13,0.08,0.18c0.02,0.04,0.03,0.07,0.06,0.08l0.07,0.1l-0.01-0.08l0.01,0h0.02
		c0.02,0.01,0.04,0.02,0.05,0.04l-0.05,0.08c0.08,0.05,0.1,0.14,0.18,0.19c0,0.07,0.25,0.33,0.33,0.42l0.07-0.07
		c0.08,0.06,0.16,0.1,0.24,0.14l0.04-0.05c0.02,0.02,0.04,0.05,0.05,0.08c0.02,0.03,0.03,0.05,0.05,0.08c0,0.06,0.03,0.11,0.06,0.15
		l0,0.11l-0.16,0L59.79,33.25z M56.48,23.59l0.06,0c0.02-0.2,0.07-0.4,0.14-0.59L56.71,23l0.02-0.04l-0.02-0.11
		c0-0.01,0.01-0.01,0.01-0.02l0.06-0.02l-0.05-0.03l0.05-0.13l-0.13,0.01c0.04-0.05,0.05-0.11,0.06-0.16c0-0.01,0.01-0.03,0.01-0.04
		l0.08-0.02c-0.06-0.04-0.08-0.1-0.06-0.17l0.01-0.01c0.06-0.02,0.06-0.05,0.12-0.05l0.01-0.12h0l0.08-0.01l-0.02-0.08
		c0.05-0.07,0.11-0.13,0.17-0.19l0.06,0.02c0.02-0.06,0-0.12-0.04-0.17c0,0-0.01-0.01-0.01-0.01c0.08-0.04,0.12-0.1,0.17-0.15
		c0.02-0.02,0.03-0.04,0.05-0.06c0.1-0.11,0.17-0.07,0.22-0.04l0.06-0.07l0,0c0,0-0.01,0.01-0.01,0.01l0.01-0.01l0,0l0,0.02
		l0.02,0.02c0,0.01,0.01,0.01,0.01,0.01l0.02-0.01l-0.01,0.11l-0.03,0.04l0.03-0.02l-0.01,0.08l-0.16,0.04h0.16l-0.02,0.15
		l0.05-0.11l0.26,0.03c0.01,0,0.01,0,0.02,0l0,0l0.01,0l-0.04,0.03l0.12,0.01l0,0.01l-0.01,0l0.02,0.02l0,0l-0.04,0l0.01,0.08
		c0,0-0.01,0-0.01,0l-0.16-0.01c0.06,0.1,0.14,0.15,0.25,0.16l-0.03,0.03l0.02,0l-0.02,0.03l-0.01,0l0,0l-0.02,0.03h-0.2l0.09,0.04
		l-0.12,0.04l0.17-0.01l-0.06,0.08l0.11-0.07l0.1,0.04v0.07l0,0.02l-0.01,0l0.01,0v0l0,0l-0.39,0.07l0.38,0.04
		c0,0.01-0.01,0.01-0.01,0.02l-0.1,0.11l0.05-0.02l0.01,0.06c0,0.01,0,0.03,0,0.04c0,0.02,0.01,0.04,0.02,0.05l0.01,0.03l0,0
		c-0.02,0.04-0.02,0.08-0.02,0.11c-0.03,0.01-0.06,0.03-0.08,0.05l0,0.01c-0.02,0.01-0.04,0.01-0.05,0.03c0,0,0.01,0.02,0.01,0.02
		L57.94,23l-0.04-0.01l0.01,0.08c0,0-0.01,0-0.01,0.01c-0.01,0.01-0.03,0.02-0.04,0.04c-0.08,0.01-0.14,0.12-0.14,0.2l-0.08,0.06
		l0.11,0.06c0,0.05,0,0.1,0,0.15l0.03,0.02c-0.01,0.01-0.02,0.01-0.02,0.01l-0.04-0.04l0.01,0.05c-0.1,0.01-0.13,0.08-0.11,0.18
		c0,0,0,0.01,0,0.02l-0.02,0.02l-0.06,0.01l0.01,0.03c-0.05-0.01-0.31,0.01-0.14,0.12L57.43,24l0,0l-0.21-0.1l0.2,0.24
		c0,0,0,0.02,0,0.03c0,0.02,0,0.04,0.01,0.07l-0.2-0.13l0.11,0.21l-0.07,0.03c0.02,0.06,0.02,0.07,0.02,0.08v0
		c-0.02,0.02-0.03,0.04-0.03,0.07c-0.07,0.01-0.12,0.07-0.17,0.11c-0.01,0.01-0.03,0.03-0.04,0.03l-0.02-0.01l-0.08-0.44l-0.02,0.2
		l-0.06,0.16l-0.02-0.01l0.02,0.03c-0.04,0.11-0.02,0.2-0.01,0.33c-0.07,0.01-0.09,0.09-0.09,0.16c-0.01,0.01-0.01,0.02-0.02,0.04
		c-0.01,0-0.01,0.01-0.02,0.02l0-0.08c0.02-0.08,0.05-0.15,0.05-0.17c0-0.01,0.01-0.02,0.01-0.03l0.01-0.03
		c0.01-0.03,0.02-0.06,0.02-0.09l0.02-0.04c-0.02-0.02-0.05-0.03-0.07-0.04l0.05-0.08l-0.18,0.1c0,0,0,0,0,0
		c0-0.01-0.01-0.02-0.01-0.03l0.04-0.02l-0.02-0.06l0.01-0.02c0.01-0.05,0-0.08-0.04-0.1c0.01-0.06,0.01-0.09-0.02-0.13l0.14-0.03
		l-0.15-0.06c0.01-0.02,0.03-0.05,0.03-0.08l0.31,0.19l-0.32-0.34c-0.01-0.01,0-0.02,0.03-0.07c0.08-0.14,0.04-0.22-0.12-0.24
		l-0.04-0.04C56.47,23.61,56.47,23.6,56.48,23.59 M57.1,21.67c0.01,0,0.01-0.01,0.02-0.01c0,0.01,0,0.02,0,0.03l-0.02,0L57.1,21.67z
		 M57.72,21.01h0.02l-0.02,0.02C57.72,21.02,57.72,21.02,57.72,21.01 M57.75,21.01c0.1,0,0.19,0.04,0.27,0.1l-0.08,0.09l-0.03-0.05
		l-0.06,0.03l-0.07,0.11l0.02-0.24l-0.05,0.05L57.75,21.01z M58.56,21.92l-0.03,0.01l0.02,0.06c-0.01,0-0.01,0-0.02,0.01
		c0-0.04-0.02-0.06-0.05-0.08l0.06-0.06C58.54,21.87,58.55,21.89,58.56,21.92 M57.78,21.55l0.01-0.13c0,0,0-0.01,0-0.01h0v0
		l0.07-0.06l0.06,0.01c0.02,0,0.04,0,0.07,0.01l0,0.09c-0.01,0.01-0.02,0.03-0.03,0.04l0,0c0,0,0,0-0.01,0l-0.05,0l-0.03,0.06
		l-0.17,0.04l0.04-0.09L57.78,21.55z M58.41,22.73c0.01,0.01,0.03,0.01,0.04,0.02c-0.01,0-0.01,0.01-0.02,0.01
		C58.43,22.74,58.42,22.74,58.41,22.73 M58.11,21.65c0.03-0.01,0.06-0.02,0.09-0.04l0,0.02l-0.01,0v0.01c0,0,0,0-0.01,0c0,0,0,0,0,0
		L58.11,21.65L58.11,21.65z M58.52,22.44C58.52,22.44,58.52,22.44,58.52,22.44L58.52,22.44L58.52,22.44
		C58.53,22.44,58.53,22.44,58.52,22.44L58.52,22.44z M58.56,22.22L58.56,22.22L58.56,22.22C58.55,22.22,58.55,22.22,58.56,22.22
		 M58.34,21.85L58.34,21.85l-0.01-0.01c-0.01-0.01-0.02-0.01-0.03-0.01l0-0.01l-0.01,0l-0.02-0.01c0,0-0.01-0.01-0.02-0.01l0,0
		l0.03-0.01l0.02,0l0.05,0.05L58.34,21.85z M57.8,21.65l-0.07,0.02l-0.04,0l0.01-0.03H57.8z M57.68,21.69L57.68,21.69L57.68,21.69
		L57.68,21.69z M58.13,22.54c-0.01,0.01-0.02,0.02-0.03,0.03l-0.02-0.01L58.13,22.54z M58.44,22.97
		C58.44,22.97,58.43,22.97,58.44,22.97c0-0.01,0-0.02,0-0.02L58.44,22.97C58.44,22.97,58.44,22.97,58.44,22.97 M58.49,21.71
		l-0.07-0.02c0.02-0.01,0.04-0.03,0.05-0.04C58.48,21.67,58.48,21.69,58.49,21.71 M58.31,21.5c-0.01,0-0.01,0.01-0.02,0.01
		l-0.06-0.06l-0.09,0.01l-0.01-0.01c-0.02-0.01-0.04,0-0.05,0c0.03-0.04,0.05-0.08,0.06-0.12l0.04,0l0.04-0.05l0-0.02
		c0.06,0.06,0.11,0.14,0.17,0.22L58.31,21.5z M58.12,21.17l-0.02,0.01h0l0.01,0.04l-0.01,0l0,0.02c-0.01,0-0.01-0.01-0.02-0.01
		l0.02-0.07C58.1,21.15,58.11,21.16,58.12,21.17 M59.86,33.12c0.02,0.01,0.05,0.01,0.08,0.01c-0.01,0-0.02,0.01-0.03,0.01
		c-0.01,0-0.02,0.01-0.04,0.01L59.86,33.12z M57.37,29.61l-0.03,0.02c0,0-0.01-0.01-0.02-0.01c-0.04-0.02-0.07,0-0.1,0.02
		l-0.09,0.03l-0.02-0.06l0.12-0.03l-0.11-0.05c0,0,0,0,0.01-0.01c0.03-0.04,0.06-0.08,0.09-0.14
		C57.27,29.46,57.31,29.53,57.37,29.61 M57.59,30.02c0.01,0.02,0.03,0.03,0.04,0.04c-0.03,0.02-0.06,0.06-0.09,0.09l-0.02-0.02
		l0.02,0.02c-0.01,0.02-0.03,0.03-0.04,0.05l-0.06-0.05c0-0.01-0.01-0.01-0.01-0.02c0.06-0.02,0.1-0.07,0.12-0.12
		c-0.04-0.05-0.09-0.09-0.17-0.09c-0.01,0-0.01,0-0.02,0l-0.05-0.03l0,0l-0.01-0.06l0.09,0.08l0.03-0.21
		c0.06,0.08,0.1,0.16,0.16,0.25l-0.04,0.03L57.59,30.02z M58.02,30.52L58.02,30.52C58.02,30.52,58.02,30.52,58.02,30.52L58.02,30.52
		L58.02,30.52z M58.02,31.03C58.02,31.03,58.02,31.03,58.02,31.03c-0.01-0.01-0.01-0.01-0.02-0.02L58,31l0-0.01
		c0.02,0.01,0.03,0.02,0.05,0.03L58.02,31.03z M58.05,30.75l0.01-0.06l0.02,0.03c0.02,0.03,0.04,0.06,0.07,0.08c0,0,0,0,0,0
		C58.11,30.78,58.07,30.77,58.05,30.75 M58.71,31.37l0-0.01c0,0,0.01,0.01,0.01,0.01L58.71,31.37z M58.73,31.38
		C58.73,31.38,58.73,31.38,58.73,31.38C58.73,31.38,58.73,31.39,58.73,31.38L58.73,31.38z M58.81,31.48l-0.01,0.02l0,0
		c0,0-0.01-0.01-0.01-0.03c0,0,0,0,0,0L58.81,31.48z M58.47,31.28c-0.06,0-0.08,0-0.09-0.05c0.01-0.03,0.03-0.04,0.07-0.06
		c0.01,0,0.02-0.01,0.03-0.01c0.01,0.04,0.02,0.09,0.04,0.13C58.5,31.28,58.48,31.28,58.47,31.28 M57.73,30.47
		c-0.01,0.01-0.01,0.03-0.01,0.04c0,0,0,0,0,0l-0.02-0.04L57.73,30.47L57.73,30.47z M57.03,29.36L57.03,29.36c0,0.03,0,0.04,0,0.05
		l-0.01-0.02C57.03,29.38,57.03,29.37,57.03,29.36 M57.03,29.7l0.04-0.02c0-0.01-0.01-0.01-0.01-0.02l0,0l-0.01-0.01l0-0.01
		l0.08,0.04l-0.01,0l0.17,0.14l-0.01,0.04l-0.02-0.01l-0.01-0.01c0,0-0.01,0-0.01-0.01c-0.06-0.05-0.12-0.09-0.19-0.12l-0.02,0.04
		l-0.04-0.01L57.03,29.7z M57.13,30.01c0.01,0,0.02,0.02,0.03,0.03l-0.04-0.02c0,0-0.01,0-0.01-0.01L57.13,30.01z M57.11,30
		C57.11,30,57.1,30,57.11,30L57.11,30z M57.3,30.23l0.02-0.01l0.01,0.01c0,0.05-0.01,0.1-0.02,0.15l0.01,0l-0.06,0.03L57.3,30.23z
		 M57.88,30.45c-0.01,0-0.01-0.01-0.01-0.02l-0.05,0.04l0.04-0.05l-0.01-0.01c-0.02-0.02-0.03-0.04-0.03-0.06c0.02,0,0.05,0,0.08,0
		c0.01,0.01,0.02,0.03,0.03,0.04L57.88,30.45z M57.71,30.42C57.71,30.42,57.71,30.43,57.71,30.42L57.71,30.42L57.71,30.42
		L57.71,30.42z M56.64,28.51l-0.02,0.07c-0.03-0.04-0.06-0.08-0.1-0.12l0.06-0.09c0.03,0.05,0.05,0.1,0.08,0.14L56.64,28.51z
		 M56.42,28.11l-0.01-0.02c0-0.01-0.01-0.01,0.01-0.03c0,0,0,0,0,0l0.02,0.03v0.01L56.42,28.11z M56.43,28.13L56.43,28.13
		L56.43,28.13L56.43,28.13z M56.43,28.17l0,0.07l0.05-0.05l0.02,0.04c0,0,0,0,0,0l-0.09,0.02l-0.05-0.03l0.02-0.03L56.43,28.17z
		 M56.54,28.3c0.01,0.02,0.02,0.03,0.03,0.05l-0.2,0.03L56.54,28.3z M60.01,33.33C60.01,33.33,60.01,33.33,60.01,33.33
		c0,0.02,0.01,0.04,0.02,0.07l-0.12-0.07l-0.01-0.04L60.01,33.33z M62.92,30.27l-0.02-0.02c0.02-0.11,0.04-0.23,0.05-0.34
		c0.04,0.01,0.07,0.03,0.08,0.04C63.02,30.01,62.97,30.13,62.92,30.27 M63.02,27.65c-0.02-0.03-0.04-0.06-0.06-0.1v-0.01l0-0.02
		c-0.02-0.14-0.1-0.27-0.21-0.35c0.01,0,0.02,0.01,0.03,0.01c0.14,0.05,0.24,0.16,0.28,0.35L63.02,27.65z M71.29,33.94
		c0.07-0.05,0.14-0.09,0.2-0.14l-0.06,0.12L71.29,33.94z M71.49,33.9l-0.11,0.11c0,0-0.01,0-0.01,0c-0.04,0.02-0.09,0.04-0.13,0.06
		c-0.02,0-0.03,0.02-0.05,0.02l-0.04-0.05L71.49,33.9z M71.6,33.72c0.1-0.07,0.14-0.13,0.17-0.19c0,0.02-0.01,0.05-0.01,0.07
		l-0.01,0.03c-0.02,0.02-0.04,0.04-0.06,0.06c-0.05,0.04-0.09,0.08-0.12,0.13c-0.01,0.02-0.03,0.03-0.04,0.05L71.5,33.9l-0.08,0.02
		l0.16-0.18C71.59,33.73,71.6,33.73,71.6,33.72 M70.41,34.47L70.41,34.47l0.1-0.05v0c0.05-0.02,0.12-0.05,0.19-0.09
		c0,0.01,0,0.02,0,0.02c-0.08,0.06-0.12,0.14-0.11,0.23l-0.04,0.01c-0.11,0.02-0.23,0.04-0.34,0.05c-0.04-0.02-0.08-0.04-0.12-0.06
		C70.2,34.56,70.31,34.52,70.41,34.47 M57.74,36.2l0.01-0.02c0,0,0,0,0,0c0,0.01,0.01,0.02,0.01,0.03L57.74,36.2z M68.19,36.59
		c0.04,0.02,0.05,0.06,0.05,0.1c0,0,0,0,0,0.01l0,0.01h-0.01c-0.04,0.08-0.35,0.1-0.44,0.1l0.2-0.13c0.01-0.06,0.05-0.09,0.13-0.1
		l0.02-0.02L68.19,36.59"/>
</g>
<path class="st2" d="M23.97,47.98c-0.92-0.92-1.38-2.07-1.38-3.44c0-1.37,0.46-2.52,1.38-3.44c0.92-0.92,2.07-1.38,3.44-1.38
	s2.52,0.46,3.44,1.38c0.92,0.92,1.38,2.07,1.38,3.44c0,1.37-0.46,2.52-1.38,3.44c-0.92,0.92-2.07,1.38-3.44,1.38
	S24.89,48.91,23.97,47.98 M27.42,47.57c0.85,0,1.55-0.29,2.08-0.87c0.54-0.58,0.8-1.3,0.8-2.15s-0.27-1.58-0.8-2.15
	c-0.54-0.58-1.24-0.87-2.1-0.87c-0.85,0-1.55,0.29-2.08,0.87c-0.54,0.58-0.8,1.3-0.8,2.15s0.27,1.58,0.8,2.15
	C25.85,47.28,26.55,47.57,27.42,47.57 M48.94,25.9h-6.53c-0.16,0-0.28,0.13-0.28,0.28v0.2v0.19v0.82v0.03v6.61v0.2v0.4v0.61v0.03
	c0,0.16,0.13,0.28,0.28,0.28h1.42h3.69h1.42c0.15,0,0.28-0.12,0.28-0.28v-0.03v-1.01v-0.2c0-0.15-0.12-0.28-0.28-0.28h-4.88l0,0
	v-2.19h3.59c0.15,0,0.28-0.12,0.28-0.28v-0.03v-1.01v-0.2c0-0.15-0.12-0.28-0.28-0.28h-3.59V27.7h4.88c0.15,0,0.28-0.12,0.28-0.28
	v-0.03v-1.01v-0.2C49.22,26.03,49.1,25.9,48.94,25.9 M42.72,34.38l-0.02-0.01L42.72,34.38L42.72,34.38z M60.04,39.71h-2.86h-0.58
	c-0.16,0-0.28,0.14-0.28,0.29v0.2v0.19v0.82v0.03v6.61v0.2v0.4v0.61v0.03c0,0.16,0.13,0.28,0.28,0.28h0.58h0.84h2.02
	c3,0,4.5-1.61,4.5-4.82C64.55,41.33,63.04,39.71,60.04,39.71 M56.9,48.19l0.01-0.01l0.01,0.01L56.9,48.19z M60.04,47.45h-1.79v-2.07
	l0,0.03v-3.76h1.79c1.71,0,2.57,0.96,2.57,2.89C62.61,46.48,61.75,47.44,60.04,47.45 M39.83,25.9H33.3c-0.16,0-0.28,0.13-0.28,0.28
	v1.21v0v7.88c0,0.16,0.13,0.28,0.28,0.28h0.69h0.87c0.15,0,0.28-0.12,0.28-0.28v-0.03v-1.21v-2.48h3.39c0.15,0,0.28-0.12,0.28-0.28
	v-0.03v-1.01v-0.2c0-0.15-0.12-0.28-0.28-0.28h-3.39V27.7h4.69c0.15,0,0.28-0.12,0.28-0.28v-0.03v-1.01v-0.2
	C40.11,26.03,39.99,25.9,39.83,25.9 M31.28,35.16l-3.6-9c-0.01-0.03-0.02-0.05-0.03-0.07l0-0.01c-0.06-0.12-0.12-0.19-0.24-0.19
	h-0.37h-0.85h-0.07h-0.29c-0.15,0-0.21,0.1-0.28,0.27l-3.61,9c-0.01,0.02-0.01,0.03-0.01,0.05l0,0v0c-0.05,0.17,0.06,0.33,0.26,0.33
	h1.35c0.24,0,0.37-0.15,0.43-0.3l0.47-1.18h4.35l0.47,1.18c0.06,0.15,0.19,0.3,0.43,0.3h1.35C31.25,35.55,31.37,35.35,31.28,35.16
	 M25.21,32.14l1.4-3.5l1.4,3.5H25.21z M20.01,30.56c-0.57-0.39-1.2-0.63-1.88-0.75l-0.22-0.04c-0.04-0.01-0.08-0.02-0.12-0.02
	c-0.77-0.13-1.27-0.32-1.48-0.58c-0.21-0.26-0.21-0.57,0-0.93c0.21-0.36,0.71-0.55,1.48-0.55c0.6,0,1.08,0.16,1.47,0.47l0.25,0.2
	c0.11,0.1,0.29,0.1,0.4-0.03l0.02-0.02l0.8-0.91c0.1-0.11,0.1-0.29-0.03-0.4l-0.27-0.23v0c0,0,0,0-0.01,0l-0.01-0.01l0,0
	c-0.14-0.11-0.28-0.21-0.42-0.29c-0.16-0.1-0.33-0.19-0.5-0.26c-0.49-0.21-1.19-0.32-2.08-0.32c-0.77,0-1.52,0.26-2.25,0.77
	c-0.73,0.52-1.1,1.2-1.1,2.05c0,0.94,0.32,1.61,0.96,1.99c0.49,0.29,1.01,0.5,1.57,0.62l0.18,0.03c0.12,0.02,0.25,0.05,0.38,0.06
	c0.86,0.09,1.39,0.31,1.6,0.68c0.21,0.36,0.21,0.73,0,1.09c-0.21,0.36-0.75,0.55-1.6,0.55c-0.76-0.06-1.45-0.32-1.9-0.63l-0.1-0.07
	l-0.18-0.16c-0.11-0.1-0.29-0.1-0.4,0.03l-0.02,0.02l-0.8,0.91c-0.1,0.11-0.1,0.29,0.03,0.4l0.28,0.24l0,0
	c0.34,0.27,0.73,0.5,1.16,0.68c0.6,0.26,1.35,0.39,2.24,0.39c0.94,0,1.77-0.28,2.48-0.84c0.71-0.56,1.06-1.22,1.06-1.99
	C21.01,31.73,20.67,31.01,20.01,30.56 M20.01,44.38c-0.57-0.39-1.2-0.63-1.88-0.75l-0.22-0.04c-0.04,0-0.08-0.02-0.12-0.02
	c-0.77-0.13-1.27-0.32-1.48-0.58c-0.21-0.26-0.21-0.57,0-0.93c0.21-0.36,0.71-0.55,1.48-0.55c0.6,0,1.08,0.16,1.47,0.47l0.25,0.2
	c0.11,0.1,0.29,0.1,0.4-0.03l0.02-0.02l0.8-0.91c0.1-0.11,0.1-0.29-0.03-0.4l-0.27-0.23c0,0,0,0-0.01,0l-0.01-0.01l0,0
	c-0.14-0.11-0.28-0.21-0.42-0.29c-0.16-0.1-0.33-0.19-0.5-0.26c-0.49-0.21-1.19-0.32-2.08-0.32c-0.77,0-1.52,0.26-2.25,0.78
	c-0.73,0.52-1.1,1.2-1.1,2.05c0,0.94,0.32,1.61,0.96,1.99c0.49,0.29,1.01,0.5,1.57,0.62l0.18,0.03c0.12,0.02,0.25,0.05,0.38,0.06
	c0.86,0.09,1.39,0.31,1.6,0.68c0.21,0.36,0.21,0.73,0,1.09c-0.21,0.36-0.75,0.55-1.6,0.55c-0.76-0.06-1.45-0.32-1.9-0.63l-0.1-0.07
	l-0.18-0.16c-0.11-0.1-0.29-0.1-0.4,0.03l-0.02,0.02l-0.8,0.91c-0.1,0.11-0.1,0.29,0.03,0.4l0.28,0.24l0,0
	c0.34,0.27,0.73,0.5,1.16,0.68c0.6,0.26,1.35,0.39,2.24,0.39c0.94,0,1.77-0.28,2.48-0.84c0.71-0.56,1.06-1.22,1.06-1.99
	C21.01,45.55,20.67,44.83,20.01,44.38 M42.21,39.72h-0.03h-1.14h-0.2c-0.15,0-0.28,0.12-0.28,0.28v3.39h0v1.92
	c0,0.73-0.21,1.27-0.64,1.61c-0.43,0.34-0.96,0.51-1.61,0.51c-0.64,0-1.18-0.17-1.61-0.51c-0.43-0.34-0.64-0.88-0.64-1.61V43.4V40.9
	V40c0-0.15-0.12-0.28-0.28-0.28h-0.03h-1.14h-0.2c-0.15,0-0.28,0.12-0.28,0.28v0.91v2.49v2.43c0,0.99,0.4,1.82,1.19,2.51
	c0.79,0.69,1.79,1.03,2.99,1.03c1.2,0,2.2-0.34,2.99-1.03c0.79-0.69,1.19-1.52,1.19-2.51V43.4v-1.84V40
	C42.5,39.85,42.38,39.72,42.21,39.72 M53.44,39.72h-0.69h-0.68c-0.15,0-0.28,0.12-0.28,0.28v0.03v1.21v2.48v0.01l0,2.04l-5.88-6.05
	h-0.15h-0.37c-0.15,0-0.28,0.12-0.28,0.27v1.23v3.68v3.15v1.05c0,0.16,0.13,0.28,0.28,0.28h0.69h0.68c0.15,0,0.28-0.12,0.28-0.28
	v-0.03v-1.21v-2.48v-0.01v-1.79l5.79,5.79h0.25h0.37c0.15,0,0.28-0.12,0.28-0.27v-0.82v-0.41v-7.42V40
	C53.72,39.84,53.59,39.72,53.44,39.72 M45.71,40.05l0.01,0.01l-0.02,0.03L45.71,40.05z"/>
</svg>
