<?xml version="1.0" encoding="utf-8"?>
<!-- Generator: Adobe Illustrator 23.0.3, SVG Export Plug-In . SVG Version: 6.00 Build 0)  -->
<svg version="1.1" id="Layer_1" xmlns="http://www.w3.org/2000/svg" xmlns:xlink="http://www.w3.org/1999/xlink" x="0px" y="0px"
	 viewBox="0 0 30 30" style="enable-background:new 0 0 30 30;" xml:space="preserve">
<style type="text/css">
	.st0{fill:#25C1DE;}
</style>
<path class="st0" d="M28.33333,0H1.66667C0.74619,0,0,0.74619,0,1.66667v26.66667C0,29.25381,0.74619,30,1.66667,30H16.025V18.4
	h-3.89583v-4.54167H16.025V10.525c0-3.875,2.36667-5.98333,5.83333-5.98333C23.0246,4.53826,24.1902,4.59807,25.35,4.72083V8.75
	h-2.4c-1.875,0-2.2375,0.89167-2.2375,2.20417v2.89167h4.49583L24.625,18.3875h-3.9125V30h7.62083
	C29.25381,30,30,29.25381,30,28.33333V1.66667C30,0.74619,29.25381,0,28.33333,0z"/>
</svg>
