<?xml version="1.0" encoding="utf-8"?>
<!-- Generator: Adobe Illustrator 23.0.3, SVG Export Plug-In . SVG Version: 6.00 Build 0)  -->
<svg version="1.1" id="Layer_1" xmlns="http://www.w3.org/2000/svg" xmlns:xlink="http://www.w3.org/1999/xlink" x="0px" y="0px"
	 viewBox="0 0 36 29" style="enable-background:new 0 0 36 29;" xml:space="preserve">
<style type="text/css">
	.st0{fill:#25C1DE;}
</style>
<path class="st0" d="M11.37879,29c13.46798,0,20.8344-11.15812,20.8344-20.8344c0-0.31693,0-0.63243-0.02141-0.9465
	c1.43307-1.03657,2.67012-2.32002,3.65323-3.79028C34.5086,4.02099,33.09092,4.40934,31.6393,4.5809
	c1.52859-0.91512,2.67264-2.35444,3.21924-4.0501c-1.43737,0.85293-3.00989,1.45403-4.64969,1.77736
	c-2.77311-2.94873-7.41158-3.0911-10.36032-0.31799c-1.90169,1.78843-2.70858,4.45337-2.11834,6.9963
	C11.84261,8.69131,6.35717,5.91045,2.63902,1.33596c-1.9435,3.34579-0.9508,7.62604,2.26703,9.77478
	c-1.16529-0.03454-2.30518-0.34889-3.32345-0.91652c0,0.02998,0,0.06139,0,0.09279c0.00095,3.48562,2.45797,6.48778,5.87458,7.17797
	c-1.07802,0.294-2.2091,0.33698-3.30632,0.12563c0.95927,2.98286,3.7083,5.02627,6.84106,5.08511
	c-2.5929,2.0378-5.79597,3.14404-9.09381,3.14072c-0.5826-0.00112-1.16463-0.03639-1.7431-0.10564
	c3.34863,2.14893,7.24495,3.28879,11.22379,3.28348"/>
</svg>
